<!--?xml version="1.0" standalone="no"?-->
              <svg id="sw-js-blob-svg" viewBox="0 0 100 100" xmlns="http://www.w3.org/2000/svg" version="1.1">
                    <defs> 
                        <linearGradient id="sw-gradient" x1="0" x2="1" y1="1" y2="0">
                            <stop id="stop1" stop-color="rgba(188, 207, 201, 1)" offset="0%"></stop>
                            <stop id="stop2" stop-color="rgba(110.847, 167.571, 149.658, 1)" offset="100%"></stop>
                        </linearGradient>
                    </defs>
                <path fill="url(#sw-gradient)" d="M24.8,-31.6C32.6,-28.4,39.8,-21.8,42.2,-13.9C44.6,-5.9,42.1,3.5,37.5,10.5C32.9,17.5,26.1,22,19.5,27.2C12.9,32.3,6.4,38,-1.1,39.5C-8.6,40.9,-17.1,38.1,-24.5,33.2C-31.9,28.4,-38.1,21.4,-39.5,13.6C-41,5.9,-37.7,-2.7,-33.2,-9C-28.7,-15.4,-23,-19.6,-17.3,-23.5C-11.5,-27.4,-5.8,-30.9,1.4,-32.8C8.5,-34.7,17,-34.8,24.8,-31.6Z" width="100%" height="100%" transform="translate(50 50)" stroke-width="0" style="transition: all 0.3s ease 0s;"></path>
              </svg>