<!--?xml version="1.0" standalone="no"?-->
              <svg id="sw-js-blob-svg" viewBox="0 0 100 100" xmlns="http://www.w3.org/2000/svg" version="1.1">
                    <defs> 
                        <linearGradient id="sw-gradient" x1="0" x2="1" y1="1" y2="0">
                            <stop id="stop1" stop-color="rgba(244, 172, 158, 1)" offset="0%"></stop>
                            <stop id="stop2" stop-color="rgba(255, 200.814, 190.278, 1)" offset="100%"></stop>
                        </linearGradient>
                    </defs>
                <path fill="url(#sw-gradient)" d="M23,-28.6C29.6,-21.9,34.4,-14.4,35.2,-6.7C36,1.1,32.7,9,28.2,15.8C23.7,22.5,18,28.1,10.4,32.5C2.8,37,-6.6,40.5,-12.9,37.3C-19.1,34.2,-22.3,24.4,-26.2,16C-30,7.5,-34.6,0.3,-35.6,-8.4C-36.7,-17.2,-34.2,-27.5,-27.7,-34.2C-21.1,-40.9,-10.6,-44,-1.2,-42.6C8.2,-41.3,16.5,-35.4,23,-28.6Z" width="100%" height="100%" transform="translate(50 50)" stroke-width="0" style="transition: all 0.3s ease 0s;"></path>
              </svg>