<svg class="c-payment-methods__img" xmlns="http://www.w3.org/2000/svg" viewBox="0 0 560.823 221.783">
                            <path d="M41.18 216.022l2.03.514c-.425 1.662-1.192 2.932-2.295 3.81-1.105.874-2.454 1.309-4.052 1.309-1.652 0-2.993-.336-4.027-1.006-1.035-.674-1.823-1.648-2.362-2.922a10.474 10.474 0 01-.81-4.11c0-1.594.303-2.985.914-4.173.61-1.188 1.476-2.09 2.604-2.708 1.123-.617 2.361-.924 3.713-.924 1.534 0 2.822.39 3.867 1.17 1.045.782 1.773 1.877 2.183 3.293l-1.994.471c-.356-1.116-.87-1.926-1.548-2.436-.674-.51-1.523-.764-2.55-.764-1.178 0-2.16.282-2.95.845a4.46 4.46 0 00-1.667 2.277 9.104 9.104 0 00-.481 2.939c0 1.306.189 2.44.567 3.414.381.97.97 1.698 1.773 2.18.802.481 1.67.72 2.604.72 1.135 0 2.094-.328 2.882-.981.789-.657 1.32-1.63 1.599-2.918zm9.962-2.09c0-2.544.682-4.535 2.048-5.972 1.367-1.437 3.129-2.158 5.29-2.158 1.413 0 2.69.339 3.825 1.013 1.134.678 2 1.62 2.597 2.829.595 1.205.892 2.579.892 4.11 0 1.555-.31 2.946-.939 4.17-.627 1.227-1.516 2.154-2.664 2.785a7.609 7.609 0 01-3.72.946c-1.446 0-2.734-.346-3.868-1.046a6.705 6.705 0 01-2.583-2.853 8.633 8.633 0 01-.878-3.825zm2.091.032c0 1.847.496 3.3 1.488 4.362.995 1.064 2.24 1.595 3.738 1.595 1.527 0 2.783-.535 3.767-1.609.985-1.074 1.48-2.597 1.48-4.57 0-1.244-.213-2.333-.634-3.264-.421-.93-1.038-1.651-1.848-2.165-.814-.51-1.723-.767-2.733-.767-1.437 0-2.671.493-3.706 1.48-1.034.985-1.552 2.633-1.552 4.938zm21.165 7.43v-15.321h3.053l3.625 10.848c.335 1.01.581 1.766.731 2.269.175-.557.446-1.377.817-2.458l3.667-10.66h2.729v15.322h-1.955V208.57l-4.452 12.824h-1.83l-4.43-13.041v13.041zm23.947 0v-15.321h5.779c1.017 0 1.794.05 2.33.146.752.125 1.383.364 1.894.717.507.35.916.846 1.227 1.477.31.635.464 1.33.464 2.09 0 1.303-.414 2.408-1.242 3.311-.831.899-2.33 1.352-4.494 1.352h-3.931v6.228zm2.027-8.037h3.963c1.309 0 2.24-.242 2.79-.731.548-.49.823-1.174.823-2.059 0-.642-.16-1.19-.485-1.648a2.263 2.263 0 00-1.28-.902c-.343-.089-.97-.136-1.891-.136h-3.92zm18.335 8.037v-15.321h6.792c1.367 0 2.405.14 3.115.414.71.275 1.277.76 1.705 1.455.424.7.635 1.47.635 2.312 0 1.088-.35 2-1.056 2.746-.703.746-1.79 1.22-3.26 1.424.538.256.944.51 1.223.763.592.542 1.152 1.224 1.684 2.037l2.664 4.17h-2.55l-2.026-3.19c-.593-.915-1.081-1.622-1.466-2.107-.382-.489-.725-.832-1.028-1.024a3.072 3.072 0 00-.924-.41c-.232-.046-.606-.072-1.13-.072h-2.352v6.803zm2.026-8.558h4.36c.924 0 1.651-.096 2.172-.289.525-.192.92-.5 1.191-.92a2.48 2.48 0 00.407-1.373c0-.725-.26-1.32-.788-1.788-.525-.467-1.355-.698-2.493-.698h-4.849zm19.495 8.558v-15.321h11.077v1.808h-9.05v4.692h8.476v1.797h-8.477v5.216h9.408v1.808zm20.202 0v-15.321h2.03v13.513h7.544v1.808zm17.426-7.463c0-2.543.682-4.534 2.048-5.971 1.367-1.437 3.128-2.158 5.29-2.158 1.413 0 2.69.339 3.825 1.013 1.134.678 2 1.62 2.597 2.829.595 1.205.891 2.579.891 4.11 0 1.555-.31 2.946-.938 4.17-.628 1.227-1.516 2.154-2.665 2.785a7.609 7.609 0 01-3.72.946c-1.445 0-2.733-.346-3.867-1.046a6.705 6.705 0 01-2.583-2.853 8.634 8.634 0 01-.878-3.825zm2.09.033c0 1.847.497 3.3 1.489 4.362.995 1.064 2.24 1.595 3.738 1.595 1.527 0 2.782-.535 3.767-1.609.984-1.074 1.48-2.597 1.48-4.57 0-1.244-.214-2.333-.634-3.264-.421-.93-1.038-1.651-1.848-2.165-.814-.51-1.724-.767-2.733-.767-1.438 0-2.672.493-3.706 1.48-1.035.985-1.552 2.633-1.552 4.938zm34.346 1.42v-1.795l6.49-.01v5.682c-.996.795-2.023 1.391-3.083 1.795-1.059.4-2.147.599-3.26.599-1.505 0-2.875-.322-4.102-.967a6.388 6.388 0 01-2.787-2.794c-.627-1.22-.941-2.582-.941-4.087 0-1.491.314-2.883.938-4.174.62-1.295 1.52-2.254 2.69-2.882 1.17-.625 2.518-.939 4.045-.939 1.106 0 2.109.179 3.004.539.895.357 1.598.856 2.104 1.498.51.642.895 1.477 1.163 2.508l-1.83.503c-.231-.781-.517-1.394-.856-1.84-.342-.447-.831-.803-1.466-1.07-.631-.268-1.338-.404-2.109-.404-.927 0-1.73.143-2.404.424-.677.282-1.22.654-1.637 1.114-.414.46-.735.963-.967 1.516-.388.945-.585 1.973-.585 3.082 0 1.366.235 2.508.707 3.428.47.92 1.155 1.602 2.054 2.047a6.35 6.35 0 002.861.671c.882 0 1.738-.171 2.572-.51.838-.335 1.47-.695 1.902-1.08v-2.855zm13.849 6.01l5.886-15.321h2.183l6.271 15.321h-2.311l-1.788-4.64h-6.406l-1.68 4.64zm4.42-6.293h5.197l-1.602-4.241c-.485-1.288-.848-2.347-1.084-3.178a19.632 19.632 0 01-.827 2.928zm17.572 6.293v-15.321h2.08l8.048 12.029v-12.03h1.944v15.322h-2.08l-8.048-12.04v12.04zm21.575 0v-15.321h11.076v1.808h-9.05v4.692h8.476v1.797h-8.476v5.216h9.407v1.808zm20.201 0v-15.321h2.03v13.513h7.545v1.808zm17.427-7.463c0-2.543.681-4.534 2.047-5.971 1.367-1.437 3.129-2.158 5.29-2.158 1.414 0 2.69.339 3.825 1.013a6.643 6.643 0 012.597 2.829c.595 1.205.892 2.579.892 4.11 0 1.555-.31 2.946-.939 4.17-.627 1.227-1.516 2.154-2.664 2.785a7.609 7.609 0 01-3.72.946c-1.445 0-2.734-.346-3.868-1.046a6.706 6.706 0 01-2.583-2.853 8.634 8.634 0 01-.877-3.825zm2.09.033c0 1.847.496 3.3 1.488 4.362.995 1.064 2.24 1.595 3.738 1.595 1.527 0 2.783-.535 3.767-1.609.985-1.074 1.48-2.597 1.48-4.57 0-1.244-.213-2.333-.634-3.264-.421-.93-1.038-1.651-1.848-2.165-.814-.51-1.723-.767-2.733-.767-1.437 0-2.671.493-3.706 1.48-1.034.985-1.552 2.633-1.552 4.938zm31.107 7.43v-6.489l-5.904-8.832h2.465l3.021 4.62a45.474 45.474 0 011.556 2.593 54.478 54.478 0 011.673-2.708l2.968-4.505h2.361l-6.114 8.832v6.49zm21.575 0v-15.321h5.276c1.192 0 2.101.075 2.73.221.877.2 1.626.567 2.247 1.095.806.685 1.412 1.555 1.812 2.619.403 1.063.603 2.275.603 3.642 0 1.163-.136 2.194-.41 3.092-.272.9-.618 1.645-1.046 2.233-.425.59-.888 1.053-1.394 1.388-.504.34-1.114.596-1.827.77-.717.176-1.537.261-2.462.261zm2.026-1.808h3.272c1.01 0 1.805-.093 2.38-.282.573-.19 1.03-.453 1.372-.796.482-.478.857-1.127 1.124-1.937.267-.813.403-1.794.403-2.954 0-1.601-.264-2.832-.788-3.692-.528-.863-1.167-1.437-1.92-1.73-.542-.21-1.42-.314-2.621-.314h-3.222zm19.83 1.808v-15.321h2.027v15.321zm10.967-4.923l1.912-.167c.09.767.3 1.394.631 1.887.332.492.846.888 1.541 1.191.696.303 1.48.453 2.351.453.774 0 1.456-.114 2.048-.342.592-.232 1.034-.546 1.323-.945.29-.403.435-.839.435-1.313a1.98 1.98 0 00-.42-1.26c-.279-.36-.74-.66-1.378-.902-.413-.16-1.32-.41-2.728-.749-1.406-.34-2.394-.656-2.958-.956-.731-.382-1.277-.86-1.637-1.427a3.51 3.51 0 01-.535-1.908c0-.77.217-1.495.656-2.166.439-.674 1.081-1.184 1.923-1.534.845-.346 1.78-.52 2.81-.52 1.139 0 2.137.182 3.008.549.867.364 1.534.902 2.001 1.612a4.67 4.67 0 01.753 2.415l-1.944.146c-.107-.966-.46-1.701-1.063-2.193-.603-.496-1.491-.742-2.668-.742-1.227 0-2.12.224-2.683.674-.56.45-.842.992-.842 1.623 0 .553.2 1.006.596 1.36.392.356 1.409.72 3.057 1.09 1.648.375 2.78.7 3.392.978.892.414 1.552.935 1.977 1.563.424.63.635 1.359.635 2.18 0 .816-.232 1.583-.7 2.304-.467.72-1.137 1.28-2.011 1.684-.875.399-1.86.599-2.95.599-1.388 0-2.551-.2-3.486-.607-.938-.403-1.673-1.01-2.208-1.822-.531-.81-.813-1.731-.838-2.755zm21.122 4.923v-15.321h10.337v1.808h-8.307v4.745h7.188v1.809h-7.188v6.96zm19.056 0v-15.321h6.792c1.367 0 2.405.14 3.115.414.71.275 1.277.76 1.705 1.455.424.7.635 1.47.635 2.312 0 1.088-.35 2-1.056 2.746-.703.746-1.79 1.22-3.26 1.424.538.256.944.51 1.223.763.592.542 1.152 1.224 1.684 2.037l2.664 4.17h-2.55l-2.026-3.19c-.593-.915-1.081-1.622-1.466-2.107-.382-.489-.725-.832-1.028-1.024a3.073 3.073 0 00-.924-.41c-.232-.046-.606-.072-1.13-.072h-2.351v6.803zm2.027-8.558h4.36c.923 0 1.65-.096 2.171-.289.525-.192.92-.5 1.191-.92a2.48 2.48 0 00.407-1.373c0-.725-.26-1.32-.788-1.788-.524-.467-1.355-.698-2.493-.698h-4.848zm29.504-6.763h2.03v8.854c0 1.537-.175 2.761-.525 3.667-.35.906-.977 1.64-1.886 2.208-.91.57-2.102.853-3.579.853-1.433 0-2.61-.247-3.52-.743-.913-.492-1.566-1.208-1.955-2.147-.393-.938-.585-2.215-.585-3.838v-8.854h2.026v8.843c0 1.331.125 2.312.371 2.94a2.826 2.826 0 001.274 1.459c.602.342 1.341.513 2.211.513 1.491 0 2.554-.339 3.19-1.017.63-.674.948-1.972.948-3.895zm15.357 15.321v-13.513h-5.048v-1.808h12.143v1.808h-5.069v13.513zm15.272 0v-15.321h11.076v1.808h-9.05v4.692h8.476v1.797h-8.476v5.216h9.407v1.808zm20.201 0v-15.321h2.03v13.513h7.545v1.808zm17.427-7.463c0-2.543.681-4.534 2.047-5.971 1.367-1.437 3.129-2.158 5.29-2.158 1.414 0 2.69.339 3.825 1.013 1.135.678 2.001 1.62 2.597 2.829.596 1.205.892 2.579.892 4.11 0 1.555-.31 2.946-.939 4.17-.627 1.227-1.516 2.154-2.664 2.785a7.61 7.61 0 01-3.72.946c-1.445 0-2.733-.346-3.868-1.046a6.706 6.706 0 01-2.583-2.853 8.634 8.634 0 01-.877-3.825zm2.09.033c0 1.847.496 3.3 1.488 4.362.995 1.064 2.24 1.595 3.738 1.595 1.527 0 2.783-.535 3.767-1.609.985-1.074 1.48-2.597 1.48-4.57 0-1.244-.213-2.333-.634-3.264-.42-.93-1.038-1.651-1.848-2.165-.814-.51-1.723-.767-2.733-.767-1.437 0-2.671.493-3.706 1.48-1.034.985-1.552 2.633-1.552 4.938z" fill="#102a83" fill-rule="evenodd" stroke="#102a83" stroke-width=".257" />
                            <path d="M16.118 20.246v0c5.928 0 10.887 4.85 10.776 10.776l-1.748 59.44c-6.876 3.689-14.39 11.274-19.866 24.263l.063-83.703c.004-5.927 4.848-10.776 10.775-10.776zM50.909.234v0c5.927 0 10.898 3.602 10.776 7.999l-1.207 28.181L33.706 75.32c5.85-20.938 5.813-47.38 6.427-67.087C40.27 3.835 44.982.234 50.91.234z" fill="#008dce" fill-rule="evenodd" stroke="#008dce" stroke-width=".468" />
                            <path d="M78.804 9.341c16.437-22.736 36.92 4.594 22.907 15.708L63.838 79.513c-20.37-.248-40.716 5.099-52.817 24.641C38.833 71.69 55.326 42.584 78.804 9.341z" fill="#102a83" fill-rule="evenodd" />
                            <g transform="translate(-14.448 -248.626)">
                                <defs>
                                    <radialGradient gradientUnits="userSpaceOnUse" fy="394.069" fx="79.472" r="50.159" cy="394.069" cx="79.472" id="a">
                                        <stop stop-color="#fff" offset="0%" />
                                        <stop stop-color="#f07c00" offset="100%" />
                                    </radialGradient>
                                </defs>
                                <path d="M74.957 364.475a25.08 25.08 0 0125.08 25.08 25.08 25.08 0 11-25.08-25.08z" fill="url(#a)" />
                                <path d="M74.993 364.233a25.08 25.08 0 0125.08 25.08 25.08 25.08 0 11-25.08-25.08z" fill="#aa1921" fill-rule="evenodd" />
                            </g>
                            <path d="M105.226 99.983c6.74 11.692-5.26 26.023-20.408 17.642-11.032-15.485-58.27-19.823-57.867 26.66.808 23.733 21.915 32.014 38.78 30.297 16.663-5.15 30.872-18.204 26.358-38.044.419-17.762 24.652-18.393 27.267-3.166C127.949 220.112-2.871 219.973.29 140.65c3.162-79.323 92.897-69.19 104.936-40.667z" fill="#102a83" fill-rule="evenodd" stroke="#102a83" stroke-width=".468" />
                            <path d="M86.342 47.283l474.342-.295v151.384l-487.286-.196c22.232-4.325 32.443-16.487 40.085-28.884 6.016-13.782 8.325-28.152 4.419-40.558-2.463-3.225-7.477-7.431-12.786-5.748l-3.904-5.022c20.005-17.515-12.994-40.614-37.75-38.596z" fill="#e30016" fill-rule="evenodd" stroke="#e30016" stroke-width=".277" />
                            <path d="M124.162 182.351v-15.587h11.269v1.84h-9.208v4.772h8.623v1.83h-8.623v5.305h9.57v1.84zm41.297 0v-15.587h2.064v13.747h7.676v1.84zm39.144 0v-15.587h11.268v1.84h-9.207v4.772h8.623v1.83h-8.623v5.305h9.57v1.84zm52.503-5.466l2.065.523c-.432 1.692-1.213 2.983-2.334 3.876-1.125.89-2.497 1.332-4.123 1.332-1.68 0-3.045-.341-4.097-1.023-1.052-.686-1.854-1.677-2.403-2.973a10.654 10.654 0 01-.823-4.18c0-1.623.308-3.038.93-4.246.62-1.209 1.501-2.127 2.648-2.755 1.143-.628 2.403-.94 3.778-.94 1.56 0 2.87.395 3.934 1.19 1.063.795 1.804 1.91 2.221 3.35l-2.028.48c-.364-1.137-.886-1.96-1.576-2.48-.685-.519-1.55-.776-2.595-.776-1.197 0-2.195.286-3.001.86a4.532 4.532 0 00-1.694 2.315 9.268 9.268 0 00-.49 2.99c0 1.33.192 2.483.576 3.474.389.987.988 1.727 1.804 2.217.817.49 1.699.733 2.65.733 1.153 0 2.13-.333 2.932-.998.802-.668 1.343-1.658 1.626-2.969zm35.475 5.466v-13.747h-5.135v-1.84h12.353v1.84h-5.157v13.747zm36.27 0v-15.587h6.91c1.39 0 2.446.141 3.168.421s1.3.773 1.735 1.48c.432.712.646 1.496.646 2.352 0 1.107-.356 2.036-1.074 2.795-.715.758-1.823 1.24-3.318 1.448.548.261.962.519 1.245.776.603.552 1.172 1.245 1.713 2.072l2.711 4.243h-2.595l-2.06-3.245c-.603-.932-1.1-1.651-1.492-2.144-.389-.498-.737-.846-1.046-1.042-.308-.2-.62-.337-.94-.417-.235-.047-.616-.073-1.15-.073h-2.392v6.921zm2.061-8.706h4.435c.94 0 1.68-.098 2.21-.294.534-.196.936-.508 1.212-.936.276-.429.414-.893.414-1.398 0-.737-.265-1.343-.802-1.818-.533-.475-1.379-.711-2.537-.711h-4.932zm39.907 1.114c0-2.588.693-4.613 2.083-6.075 1.39-1.463 3.182-2.196 5.382-2.196 1.437 0 2.736.345 3.89 1.03a6.754 6.754 0 012.642 2.879c.606 1.226.907 2.624.907 4.18 0 1.583-.315 2.998-.954 4.243-.639 1.248-1.542 2.192-2.71 2.834a7.749 7.749 0 01-3.786.962c-1.47 0-2.78-.352-3.934-1.063a6.827 6.827 0 01-2.628-2.904 8.787 8.787 0 01-.892-3.89zm2.126.033c0 1.88.505 3.356 1.514 4.438 1.012 1.081 2.279 1.622 3.803 1.622 1.553 0 2.83-.544 3.833-1.636 1.001-1.093 1.506-2.643 1.506-4.65 0-1.266-.218-2.373-.646-3.32-.428-.947-1.057-1.68-1.88-2.203-.828-.519-1.753-.78-2.78-.78-1.463 0-2.718.5-3.77 1.506-1.053 1.002-1.58 2.678-1.58 5.023zm42.32 7.56v-15.588h2.116l8.187 12.237v-12.237h1.978v15.587h-2.116l-8.187-12.248v12.248zm43.002 0v-15.588h2.061v15.587zm43.72-5.467l2.065.523c-.432 1.692-1.212 2.983-2.333 3.876-1.125.89-2.497 1.332-4.123 1.332-1.68 0-3.045-.341-4.097-1.023-1.053-.686-1.855-1.677-2.403-2.973a10.656 10.656 0 01-.823-4.18c0-1.623.308-3.038.929-4.246.62-1.209 1.502-2.127 2.65-2.755 1.142-.628 2.401-.94 3.777-.94 1.56 0 2.87.395 3.934 1.19 1.063.795 1.804 1.91 2.22 3.35l-2.028.48c-.363-1.137-.885-1.96-1.575-2.48-.686-.519-1.55-.776-2.595-.776-1.197 0-2.196.286-3.001.86a4.532 4.532 0 00-1.695 2.315 9.268 9.268 0 00-.49 2.99c0 1.33.192 2.483.577 3.474.388.987.988 1.727 1.804 2.217.816.49 1.698.733 2.649.733 1.154 0 2.13-.333 2.932-.998.802-.668 1.343-1.658 1.627-2.969zm30.881-2.126c0-2.588.694-4.613 2.083-6.075 1.39-1.463 3.183-2.196 5.382-2.196 1.438 0 2.737.345 3.89 1.03a6.755 6.755 0 012.643 2.879c.606 1.226.907 2.624.907 4.18 0 1.583-.316 2.998-.955 4.243-.638 1.248-1.542 2.192-2.71 2.834a7.749 7.749 0 01-3.786.962c-1.47 0-2.78-.352-3.933-1.063a6.827 6.827 0 01-2.628-2.904 8.787 8.787 0 01-.893-3.89zm2.127.033c0 1.88.504 3.356 1.513 4.438 1.012 1.081 2.28 1.622 3.804 1.622 1.553 0 2.83-.544 3.832-1.636 1.002-1.093 1.506-2.643 1.506-4.65 0-1.266-.218-2.373-.646-3.32-.428-.947-1.056-1.68-1.88-2.203-.827-.519-1.753-.78-2.78-.78-1.462 0-2.718.5-3.77 1.506-1.053 1.002-1.58 2.678-1.58 5.023z" fill="#fff" fill-rule="evenodd" stroke="#fff" stroke-width=".261" />
                            <path d="M128.502 74.68h43.29c23.09 2.549 21.894 30.261 9.433 39.788 24.588 15.03 10.692 43.281-4.302 42.341h-48.421z" fill="#ffec00" fill-rule="evenodd" stroke="#ffec00" stroke-width=".468" />
                            <path d="M191.683 156.81l34.085-83.205 38.665 83.204zM267.366 74.68v82.13h54.792v-23.537h-24.19V74.681z" fill="#ffec00" fill-rule="evenodd" stroke="#ffec00" stroke-width=".468" />
                            <path d="M363.39 72.687a42.777 42.777 0 0142.777 42.777 42.777 42.777 0 11-42.777-42.777zM405.72 74.68h59.008v24.077H450.8l-.001 58.052h-30.786V98.757h-14.293z" fill="#ffec00" fill-rule="evenodd" stroke="#ffec00" stroke-width=".468" />
                            <path d="M508.79 72.687a42.777 42.777 0 0142.776 42.777 42.777 42.777 0 11-42.777-42.777z" fill="#ffec00" fill-rule="evenodd" stroke="#ffec00" stroke-width=".468" />
                            <defs>
                                <radialGradient gradientTransform="translate(-14.448 -248.626)" gradientUnits="userSpaceOnUse" fy="366.627" fx="380.73" r="28.191" cy="366.627" cx="380.73" id="b">
                                    <stop stop-color="#fff" offset="0%" />
                                    <stop stop-color="#102a83" offset="100%" />
                                </radialGradient>
                            </defs>
                            <path d="M363.745 101.368a14.096 14.096 0 0114.095 14.096 14.096 14.096 0 11-14.095-14.096z" fill="url(#b)" />
                            <defs>
                                <radialGradient gradientTransform="translate(-14.448 -248.626)" gradientUnits="userSpaceOnUse" fy="366.627" fx="299.567" r="28.191" cy="366.627" cx="299.567" id="c">
                                    <stop stop-color="#fff" offset="0%" />
                                    <stop stop-color="#102a83" offset="100%" />
                                </radialGradient>
                            </defs>
                            <path d="M282.582 101.368a14.096 14.096 0 0114.095 14.096 14.096 14.096 0 11-14.095-14.096z" fill="url(#c)" />
                            <defs>
                                <radialGradient gradientTransform="translate(-14.448 -248.626)" gradientUnits="userSpaceOnUse" fy="366.627" fx="243.731" r="28.191" cy="366.627" cx="243.731" id="d">
                                    <stop stop-color="#fff" offset="0%" />
                                    <stop stop-color="#102a83" offset="100%" />
                                </radialGradient>
                            </defs>
                            <path d="M226.745 101.368a14.096 14.096 0 0114.096 14.096 14.096 14.096 0 11-14.096-14.096z" fill="url(#d)" />
                            <defs>
                                <radialGradient gradientTransform="translate(-14.448 -248.626)" gradientUnits="userSpaceOnUse" fy="366.627" fx="174.645" r="28.191" cy="366.627" cx="174.645" id="e">
                                    <stop stop-color="#fff" offset="0%" />
                                    <stop stop-color="#102a83" offset="100%" />
                                </radialGradient>
                            </defs>
                            <path d="M157.66 101.368a14.096 14.096 0 0114.095 14.096 14.096 14.096 0 11-14.095-14.096z" fill="url(#e)" />
                            <defs>
                                <radialGradient gradientTransform="translate(-14.448 -248.626)" gradientUnits="userSpaceOnUse" fy="366.627" fx="526.995" r="28.191" cy="366.627" cx="526.995" id="f">
                                    <stop stop-color="#fff" offset="0%" />
                                    <stop stop-color="#102a83" offset="100%" />
                                </radialGradient>
                            </defs>
                            <path d="M510.01 101.368a14.096 14.096 0 0114.096 14.096 14.096 14.096 0 11-14.096-14.096z" fill="url(#f)" />
                            <defs>
                                <radialGradient gradientTransform="translate(-14.448 -248.626)" gradientUnits="userSpaceOnUse" fy="366.627" fx="452.231" r="28.191" cy="366.627" cx="452.231" id="g">
                                    <stop stop-color="#fff" offset="0%" />
                                    <stop stop-color="#102a83" offset="100%" />
                                </radialGradient>
                            </defs>
                            <path d="M435.246 101.368a14.096 14.096 0 0114.096 14.096 14.096 14.096 0 11-14.096-14.096z" fill="url(#g)" />
                        </svg>