<?xml version="1.0" encoding="UTF-8"?>
<svg xmlns="http://www.w3.org/2000/svg" xmlns:xlink="http://www.w3.org/1999/xlink" width="300px" height="100px" viewBox="0 0 300 100" version="1.1">
<g id="surface1">
<path style=" stroke:none;fill-rule:nonzero;fill:rgb(0%,0%,0%);fill-opacity:1;" d="M 99.214844 50 C 94.304688 77.535156 68.570312 100 41.667969 100 C 14.765625 100 -2.78125 77.535156 2.363281 50 C 7.511719 22.464844 33.246094 0 59.914062 0 C 86.582031 0 104.363281 22.464844 99.214844 50 M 73.480469 7.488281 C 87.519531 13.769531 95.472656 28.984375 92.429688 46.859375 C 91.730469 50.726562 90.558594 54.347656 88.921875 57.972656 L 88.6875 58.210938 C 87.050781 61.835938 84.945312 65.457031 82.605469 68.597656 L 81.902344 69.324219 C 76.054688 76.8125 68.335938 82.609375 59.445312 85.992188 L 58.746094 86.230469 L 58.042969 86.472656 L 57.808594 86.472656 C 57.574219 86.472656 57.574219 86.472656 57.574219 86.230469 L 57.574219 85.992188 L 57.808594 81.640625 C 62.019531 80.675781 65.996094 78.742188 69.039062 75.84375 C 73.015625 71.980469 74.886719 66.667969 74.417969 61.109375 C 74.183594 56.523438 72.3125 52.414062 69.039062 49.515625 C 65.527344 46.617188 61.550781 43.960938 57.574219 42.027344 L 56.871094 41.789062 C 53.832031 40.339844 50.789062 38.648438 47.984375 36.714844 C 46.34375 35.75 45.175781 34.058594 44.707031 32.125 C 44.707031 31.160156 44.941406 30.191406 45.644531 29.46875 C 47.28125 28.019531 49.152344 27.535156 51.257812 27.535156 C 55.234375 27.777344 58.976562 28.742188 62.488281 30.675781 C 62.722656 30.917969 63.1875 30.917969 63.421875 30.917969 C 65.527344 30.675781 67.164062 29.226562 68.101562 27.292969 C 68.804688 25.84375 69.269531 24.394531 69.503906 22.707031 C 69.503906 21.980469 69.269531 21.496094 68.804688 21.015625 C 65.292969 18.597656 61.316406 16.910156 57.339844 16.425781 C 57.105469 16.425781 57.105469 16.425781 56.871094 16.183594 L 56.640625 15.941406 C 56.640625 15.941406 56.871094 10.386719 57.105469 8.695312 L 57.105469 6.28125 C 56.871094 5.554688 56.171875 4.832031 55.234375 5.074219 L 55 5.074219 C 48.917969 5.554688 43.070312 7.246094 37.691406 10.144531 C 22.484375 17.148438 10.085938 32.367188 7.042969 50 C 3.535156 69.566406 12.425781 86.472656 28.332031 92.753906 C 14.296875 86.714844 6.34375 71.257812 9.382812 53.382812 C 10.085938 49.515625 11.253906 45.652344 12.890625 42.027344 C 12.890625 42.027344 12.890625 41.789062 13.125 41.789062 C 13.828125 40.097656 14.765625 38.40625 15.699219 36.957031 C 21.3125 27.292969 29.734375 19.808594 39.5625 15.21875 C 41.199219 14.492188 43.070312 13.769531 44.941406 13.285156 L 45.175781 13.285156 C 45.175781 13.285156 45.410156 13.285156 45.410156 13.527344 L 45.410156 13.769531 L 45.175781 16.910156 C 41.433594 17.632812 37.921875 19.324219 35.117188 21.980469 C 28.097656 28.742188 27.628906 39.855469 33.945312 47.34375 C 36.988281 50.964844 40.730469 53.863281 45.175781 55.554688 L 45.410156 55.796875 C 48.917969 57.246094 52.429688 59.179688 55.703125 61.109375 C 58.042969 62.800781 58.746094 64.25 58.746094 65.941406 C 58.976562 67.148438 58.511719 68.359375 57.574219 69.324219 C 55.9375 70.773438 53.832031 71.257812 51.726562 71.257812 C 46.578125 71.257812 41.667969 69.808594 37.457031 66.910156 C 36.753906 66.425781 35.816406 66.183594 35.117188 66.183594 C 34.414062 66.183594 33.480469 66.667969 33.011719 67.148438 C 32.542969 67.632812 32.074219 68.359375 31.605469 69.324219 C 30.671875 71.015625 30.4375 72.945312 30.4375 75.121094 C 30.4375 75.605469 30.4375 75.84375 30.671875 76.328125 C 30.671875 76.8125 30.90625 77.292969 31.375 77.535156 C 35.585938 80.675781 40.496094 82.609375 45.644531 83.089844 C 45.878906 83.089844 45.878906 83.089844 45.878906 83.332031 L 46.113281 83.574219 C 46.34375 86.230469 46.113281 89.128906 45.878906 91.789062 C 45.878906 92.753906 45.878906 93.476562 46.113281 94.445312 C 46.34375 95.167969 47.046875 95.652344 47.75 95.894531 L 48.449219 95.894531 C 49.386719 95.894531 50.089844 95.652344 51.023438 95.410156 C 54.300781 94.925781 57.574219 93.960938 60.617188 92.753906 L 59.914062 92.753906 L 61.316406 92.027344 L 61.550781 92.027344 L 62.957031 91.304688 L 63.1875 91.304688 C 78.863281 83.816406 91.496094 68.597656 94.769531 50.726562 C 98.28125 30.433594 89.390625 13.769531 73.480469 7.488281 M 115.824219 54.832031 C 116.058594 61.351562 120.035156 65.941406 126.820312 65.941406 C 130.09375 65.941406 133.136719 64.976562 135.945312 63.285156 L 138.285156 68.839844 C 134.539062 71.257812 130.09375 72.464844 125.882812 72.464844 C 113.25 72.464844 107.636719 63.042969 107.636719 52.65625 C 107.636719 41.304688 113.71875 33.089844 123.546875 33.089844 C 133.371094 33.089844 139.21875 40.578125 139.21875 52.898438 L 139.21875 54.832031 Z M 131.03125 49.035156 C 130.796875 44.203125 128.691406 39.613281 123.546875 39.613281 C 118.632812 39.613281 115.824219 43.960938 115.824219 49.035156 Z M 146.703125 40.578125 L 142.726562 40.578125 L 140.15625 34.058594 L 146.703125 34.058594 L 146.703125 28.503906 C 146.703125 19.324219 151.851562 15.457031 158.402344 15.457031 C 160.742188 15.457031 163.316406 15.941406 165.421875 16.910156 L 163.78125 23.429688 C 162.378906 22.945312 160.976562 22.464844 159.335938 22.464844 C 156.0625 22.464844 154.660156 24.636719 154.660156 28.261719 L 154.660156 34.058594 L 164.71875 34.058594 L 162.144531 40.578125 L 154.660156 40.578125 L 154.660156 71.738281 L 146.472656 71.738281 Z M 173.375 54.832031 C 173.609375 61.351562 177.585938 65.941406 184.367188 65.941406 C 187.644531 65.941406 190.683594 64.976562 193.492188 63.285156 L 195.832031 68.839844 C 192.089844 71.257812 187.878906 72.464844 183.433594 72.464844 C 170.566406 72.464844 165.1875 63.042969 165.1875 52.65625 C 165.1875 41.304688 171.269531 33.089844 181.09375 33.089844 C 190.917969 33.089844 196.769531 40.578125 196.769531 52.898438 L 196.769531 54.832031 Z M 188.578125 49.035156 C 188.347656 44.203125 186.242188 39.613281 181.09375 39.613281 C 176.179688 39.613281 173.375 43.960938 173.375 49.035156 Z M 200.980469 53.140625 C 200.980469 41.546875 208.933594 33.089844 219.925781 33.089844 C 223.203125 33.089844 226.710938 33.816406 229.519531 35.507812 L 229.519531 42.511719 C 226.945312 40.578125 223.90625 39.613281 220.628906 39.613281 C 213.609375 39.613281 209.167969 45.167969 209.167969 52.65625 C 209.167969 60.871094 213.609375 65.457031 220.160156 65.457031 C 223.203125 65.457031 226.242188 64.492188 228.816406 62.800781 L 231.15625 68.597656 C 227.648438 71.015625 223.4375 72.222656 218.992188 72.222656 C 207.527344 72.464844 200.980469 64.007812 200.980469 53.140625 M 290.34375 34.058594 L 281.21875 62.078125 L 280.984375 62.078125 C 280.984375 62.078125 274.203125 45.167969 271.863281 39.613281 C 271.394531 38.164062 269.523438 34.058594 263.207031 34.058594 L 247.296875 34.058594 L 247.296875 22.707031 L 239.34375 25.363281 L 239.34375 34.058594 L 233.027344 34.058594 L 233.027344 40.578125 L 239.34375 40.578125 L 239.34375 62.800781 C 239.34375 68.839844 243.085938 72.464844 249.167969 72.464844 C 252.679688 72.464844 256.421875 71.496094 259.464844 69.566406 L 256.890625 63.769531 C 255.253906 64.976562 253.148438 65.699219 251.273438 65.699219 C 248.9375 65.699219 247.53125 64.25 247.53125 60.871094 L 247.53125 40.339844 L 263.90625 40.339844 L 277.476562 71.496094 C 274.667969 80.675781 271.160156 83.574219 266.714844 83.574219 C 264.84375 83.574219 262.972656 83.089844 261.335938 82.125 L 259.230469 88.648438 C 261.570312 89.855469 264.140625 90.339844 266.949219 90.339844 C 273.265625 90.339844 279.347656 88.40625 284.496094 73.1875 L 298.53125 33.574219 L 290.34375 33.574219 Z M 290.34375 34.058594 "/>
</g>
</svg>
