<svg width="36" height="35" viewBox="0 0 36 35" fill="none" xmlns="http://www.w3.org/2000/svg">
<mask id="mask0_143_619" style="mask-type:alpha" maskUnits="userSpaceOnUse" x="0" y="0" width="36" height="35">
<path fill-rule="evenodd" clip-rule="evenodd" d="M0.000488281 0H35.2494V34.7616H0.000488281V0Z" fill="white"/>
</mask>
<g mask="url(#mask0_143_619)">
<path fill-rule="evenodd" clip-rule="evenodd" d="M30.0875 5.09101C26.7585 1.8081 22.3325 -0.00012207 17.625 -0.00012207C12.9174 -0.00012207 8.49136 1.8081 5.16236 5.09101C1.83337 8.37393 0.000488281 12.738 0.000488281 17.3811C0.000488281 22.0243 1.83337 26.389 5.16236 29.6712C8.49136 32.9541 12.9174 34.7616 17.625 34.7616C22.3325 34.7616 26.7585 32.9541 30.0875 29.6712C33.4165 26.389 35.2494 22.0243 35.2494 17.3811C35.2494 12.738 33.4165 8.37393 30.0875 5.09101" fill="#44609C"/>
</g>
<path fill-rule="evenodd" clip-rule="evenodd" d="M14.2629 16.8439V14.9587H15.4021C15.7077 14.9587 15.9551 14.7149 15.9551 14.4146V12.4919C15.9551 12.14 16.0126 11.244 16.5456 10.5318C17.0562 9.8506 17.8797 9.50507 18.9901 9.50507L21.0757 9.51355V11.3147H19.7158C19.0649 11.3147 18.4075 11.7337 18.4075 12.6686V14.4153C18.4075 14.7149 18.6549 14.9587 18.9606 14.9587H21.0606L20.8629 16.8439H18.9606C18.6549 16.8439 18.4075 17.0877 18.4075 17.3873V25.2561H15.9551V17.3873C15.9551 17.0877 15.7077 16.8439 15.4021 16.8439H14.2629ZM15.4021 26.3422H18.9606C19.2655 26.3422 19.5137 26.0998 19.5137 25.7995V17.93H21.362C21.6453 17.93 21.8827 17.7194 21.9114 17.4431L22.2236 14.4711C22.2394 14.3185 22.189 14.1659 22.084 14.0514C21.979 13.9376 21.8302 13.8719 21.6734 13.8719H19.5137V12.6686C19.5137 12.4198 19.5935 12.4015 19.7158 12.4015H21.6288C21.9337 12.4015 22.1811 12.1577 22.1811 11.8574V8.97228C22.1811 8.67339 21.9352 8.43102 21.631 8.42961L18.993 8.41901C17.1439 8.41901 16.1572 9.21818 15.6552 9.88805C14.954 10.8236 14.8497 11.921 14.8497 12.4912V13.8719H13.7105C13.4049 13.8719 13.1575 14.1157 13.1575 14.4146V17.3873C13.1575 17.6869 13.4049 17.93 13.7105 17.93H14.8497V25.7995C14.8497 26.0998 15.0971 26.3422 15.4021 26.3422V26.3422Z" fill="white"/>
</svg>
