<svg width="36" height="35" viewBox="0 0 36 35" fill="none" xmlns="http://www.w3.org/2000/svg">
<mask id="mask0_143_626" style="mask-type:alpha" maskUnits="userSpaceOnUse" x="0" y="0" width="36" height="35">
<path fill-rule="evenodd" clip-rule="evenodd" d="M0.00012207 0H35.2498V34.7615H0.00012207V0Z" fill="white"/>
</mask>
<g mask="url(#mask0_143_626)">
<path fill-rule="evenodd" clip-rule="evenodd" d="M30.0879 5.09166C26.7589 1.80804 22.3329 -0.000183105 17.6246 -0.000183105C12.917 -0.000183105 8.49171 1.80804 5.16271 5.09166C1.83372 8.37458 0.00012207 12.7386 0.00012207 17.381C0.00012207 22.0242 1.83372 26.3889 5.16271 29.6711C8.49099 32.9548 12.917 34.7616 17.6246 34.7616C22.3329 34.7616 26.7589 32.9548 30.0879 29.6711C33.4162 26.3889 35.2498 22.0242 35.2498 17.381C35.2498 12.7386 33.4162 8.37387 30.0879 5.09166Z" fill="#D32F8B"/>
</g>
<path fill-rule="evenodd" clip-rule="evenodd" d="M22.3388 8.66681H13.0807C10.7333 8.66681 8.82385 10.5436 8.82385 12.8499V21.9462C8.82385 24.2525 10.7333 26.1286 13.0807 26.1286H22.3388C24.6863 26.1286 26.5964 24.2525 26.5964 21.9462V12.8499C26.5964 10.5436 24.6863 8.66681 22.3388 8.66681Z" fill="white"/>
<path fill-rule="evenodd" clip-rule="evenodd" d="M25.475 21.9461C25.475 23.6448 24.0683 25.027 22.3386 25.027H13.0812C11.3516 25.027 9.94482 23.6448 9.94482 21.9461V12.8499C9.94482 11.1512 11.3516 9.7691 13.0812 9.7691H22.3386C24.0683 9.7691 25.475 11.1512 25.475 12.8499V21.9461Z" fill="#D32F8B"/>
<path fill-rule="evenodd" clip-rule="evenodd" d="M22.677 11.8583C22.3002 11.8583 21.9945 12.1593 21.9945 12.5289C21.9945 12.8991 22.3002 13.1987 22.677 13.1987C23.0532 13.1987 23.3595 12.8991 23.3595 12.5289C23.3595 12.1593 23.0532 11.8583 22.677 11.8583Z" fill="white"/>
<path fill-rule="evenodd" clip-rule="evenodd" d="M17.7099 13.1183C15.3078 13.1183 13.3538 15.0381 13.3538 17.3982C13.3538 19.7576 15.3078 21.6775 17.7099 21.6775C20.112 21.6775 22.066 19.7576 22.066 17.3982C22.066 15.0381 20.112 13.1183 17.7099 13.1183Z" fill="white"/>
<path fill-rule="evenodd" clip-rule="evenodd" d="M17.7099 20.5764C15.9256 20.5764 14.4742 19.1498 14.4742 17.3981C14.4742 15.645 15.9256 14.2197 17.7099 14.2197C19.4935 14.2197 20.9448 15.645 20.9448 17.3981C20.9448 19.1498 19.4935 20.5764 17.7099 20.5764Z" fill="#D32F8B"/>
</svg>
