<svg width="37" height="35" viewBox="0 0 37 35" fill="none" xmlns="http://www.w3.org/2000/svg">
<mask id="mask0_143_635" style="mask-type:alpha" maskUnits="userSpaceOnUse" x="0" y="0" width="37" height="35">
<path fill-rule="evenodd" clip-rule="evenodd" d="M0.881592 0H36.1305V34.7616H0.881592V0Z" fill="white"/>
</mask>
<g mask="url(#mask0_143_635)">
<path fill-rule="evenodd" clip-rule="evenodd" d="M30.9686 5.09101C27.6396 1.8081 23.2136 -0.00012207 18.5061 -0.00012207C13.7985 -0.00012207 9.37246 1.8081 6.04347 5.09101C2.71447 8.37393 0.881592 12.738 0.881592 17.3811C0.881592 22.0243 2.71447 26.389 6.04347 29.6712C9.37246 32.9541 13.7985 34.7616 18.5061 34.7616C23.2136 34.7616 27.6396 32.9541 30.9686 29.6712C34.2976 26.389 36.1305 22.0243 36.1305 17.3811C36.1305 12.738 34.2976 8.37393 30.9686 5.09101" fill="#55ABEE"/>
</g>
<path fill-rule="evenodd" clip-rule="evenodd" d="M27.7611 13.2774C27.8978 13.0767 27.882 12.811 27.7237 12.6266C27.5655 12.4414 27.3023 12.3814 27.0779 12.4789C27.0635 12.4853 27.0499 12.4916 27.0355 12.4973C27.1649 12.2683 27.2728 12.026 27.3555 11.7723C27.4253 11.5575 27.3526 11.3222 27.1728 11.1823C26.9938 11.0417 26.7442 11.0247 26.5464 11.1406C25.9891 11.4656 25.3921 11.7037 24.7686 11.8521C24.0228 11.1886 23.0411 10.8134 22.0292 10.8134C19.7853 10.8134 17.96 12.6061 17.96 14.8093C17.96 14.8722 17.9615 14.9351 17.9643 14.998C15.5558 14.709 13.3321 13.5098 11.7851 11.6444C11.6707 11.5066 11.4945 11.4324 11.3133 11.4458C11.1335 11.4607 10.9702 11.5603 10.8796 11.7143C10.5193 12.322 10.328 13.0173 10.328 13.7239C10.328 14.4002 10.5006 15.051 10.8156 15.6254C10.7315 15.6311 10.6473 15.6558 10.5718 15.6996C10.4035 15.7971 10.3 15.9752 10.3 16.1681V16.2105C10.3 17.4075 10.8458 18.5049 11.7239 19.2468C11.7052 19.2638 11.6873 19.2807 11.67 19.2991C11.542 19.4433 11.4996 19.6418 11.5585 19.8241C11.9368 20.9837 12.82 21.8839 13.9268 22.3163C13.0278 22.7608 12.0361 22.9912 11.0026 22.9912C10.7415 22.9912 10.4812 22.9763 10.228 22.9481C9.972 22.9184 9.72964 23.0661 9.64333 23.3035C9.55703 23.5416 9.64909 23.8073 9.86556 23.9444C11.5657 25.0156 13.5327 25.5823 15.5536 25.5823C19.5235 25.5823 22.0091 23.7409 23.3957 22.1955C25.1203 20.2721 26.1099 17.7262 26.1099 15.21C26.1099 15.1478 26.1099 15.0877 26.1092 15.0284C26.7514 14.5344 27.3066 13.9465 27.7611 13.2774" fill="white"/>
<path fill-rule="evenodd" clip-rule="evenodd" d="M25.2231 14.3235C25.0713 14.4309 24.985 14.6068 24.9944 14.7906C25.0009 14.9248 25.0045 15.0619 25.0045 15.2103C25.0045 17.4651 24.1155 19.7503 22.5657 21.4772C21.3301 22.8544 19.1107 24.4959 15.5536 24.4959C14.4647 24.4959 13.3939 24.3122 12.382 23.9567C13.5916 23.7426 14.7237 23.2438 15.7097 22.4841C15.8931 22.3428 15.9664 22.1019 15.8923 21.8842C15.8183 21.6666 15.6118 21.5182 15.3781 21.514C14.4051 21.4956 13.524 21.0137 12.9926 20.2555C13.2702 20.2385 13.5456 20.1947 13.8153 20.1227C14.0634 20.0569 14.2324 19.8329 14.2238 19.5807C14.2159 19.3291 14.0325 19.1157 13.7808 19.0663C12.6797 18.8472 11.8203 18.0353 11.5204 17.0122C11.816 17.0885 12.1209 17.133 12.4266 17.1429C12.674 17.1514 12.8962 16.9973 12.9717 16.7662C13.0472 16.5352 12.9573 16.2829 12.7524 16.1487C11.9267 15.6074 11.4341 14.7008 11.4341 13.7236C11.4341 13.477 11.4664 13.2318 11.5283 12.9944C13.3809 14.8732 15.9031 16.0081 18.5763 16.1388C18.7511 16.1473 18.9172 16.0752 19.0287 15.9445C19.1395 15.813 19.1819 15.6385 19.1423 15.4732C19.092 15.259 19.0661 15.0358 19.0661 14.8089C19.0661 13.2049 20.3952 11.8991 22.0292 11.8991C22.8447 11.8991 23.6337 12.234 24.1932 12.8177C24.3234 12.9541 24.5154 13.0141 24.7017 12.9788C24.9117 12.9385 25.1181 12.8898 25.3223 12.8325C25.2202 12.9124 25.1116 12.9859 24.998 13.053C24.775 13.1844 24.6751 13.4515 24.7585 13.6939C24.8426 13.9363 25.0879 14.0882 25.3468 14.0585C25.4367 14.0479 25.5266 14.0359 25.6158 14.0225C25.4892 14.1278 25.3583 14.2274 25.2231 14.3235" fill="#55ABEE"/>
</svg>
