<svg width="100" height="18" viewBox="0 0 100 18" fill="none" xmlns="http://www.w3.org/2000/svg">
<path fill-rule="evenodd" clip-rule="evenodd" d="M10.3488 1.92073H18.0189V16.0699H10.3488V1.92073Z" fill="#FF5F00"/>
<path fill-rule="evenodd" clip-rule="evenodd" d="M10.836 9.00026C10.8339 6.23952 12.0686 3.63111 14.1844 1.92668C10.5901 -0.973395 5.42809 -0.551398 2.32632 2.89608C-0.775442 6.34356 -0.775442 11.6589 2.32632 15.1064C5.42809 18.5539 10.5901 18.9759 14.1844 16.0758C12.0681 14.371 10.8333 11.7617 10.836 9.00026Z" fill="#EB001B"/>
<path fill-rule="evenodd" clip-rule="evenodd" d="M28.3683 9.00032C28.3678 12.4452 26.4514 15.5875 23.4327 17.0929C20.414 18.5983 16.823 18.2026 14.1843 16.0739C16.2991 14.3679 17.5339 11.7598 17.5339 8.99884C17.5339 6.23792 16.2991 3.62981 14.1843 1.92378C16.8232 -0.205185 20.4147 -0.600695 23.4336 0.905219C26.4524 2.41113 28.3686 5.5541 28.3683 8.99933V9.00032ZM27.5265 14.7121V14.305H27.6412V14.2249H27.3559V14.3089H27.4706V14.7151L27.5265 14.7121ZM28.0889 14.2209V14.7121L28.0253 14.715V14.3435L27.9309 14.6627H27.8644L27.7699 14.3435V14.7121H27.7189V14.2209H27.8085L27.9106 14.5717L28.0137 14.2209H28.0889Z" fill="#F79E1B"/>
<path fill-rule="evenodd" clip-rule="evenodd" d="M98.1426 9.03492V3.63931H96.8737V6.76797C96.4348 6.18665 95.7488 5.8596 95.0329 5.89045C93.3992 5.89045 92.111 7.20476 92.111 9.03294C92.111 10.8591 93.3915 12.1744 95.0329 12.1744C95.7483 12.2051 96.4347 11.878 96.8737 11.2969V12.0223H98.1426V9.03492ZM60.3282 6.04268H62.401L62.3981 7.23248H60.3263V9.9372C60.3263 10.537 60.5352 10.9373 61.1687 10.9373C61.5644 10.9234 61.9504 10.8078 62.2903 10.5993L62.6561 11.714C62.1807 12.0179 61.6315 12.1782 61.0715 12.1765C59.5705 12.1765 59.0478 11.3493 59.0478 9.95993V7.23248H57.8636V6.04268H59.0478V4.22833H60.3282V6.04268ZM43.4475 8.27787V12.0271H42.1651V8.69786C42.1651 7.68297 41.7271 7.12069 40.8847 7.12069C40.0413 7.12069 39.457 7.67013 39.457 8.70972V12.0271H38.1842V8.69786C38.1842 7.68297 37.7818 7.12069 36.9153 7.12069C36.0479 7.12069 35.4876 7.67013 35.4876 8.70972V12.0261H34.2072V6.03761H35.476V6.78766C35.851 6.20241 36.4994 5.86418 37.181 5.89827C37.9643 5.86426 38.7031 6.27258 39.1065 6.96257C39.5494 6.25154 40.3338 5.84384 41.1543 5.89827C42.5695 5.91013 43.4475 6.86276 43.4475 8.27787ZM73.2192 5.89335C72.5891 5.87461 71.9994 6.21135 71.6827 6.77088V6.04257H70.4263V12.0271H71.6952V8.67219C71.6952 7.67311 72.1092 7.13256 72.9391 7.13256C73.2115 7.12861 73.4811 7.18 73.7333 7.28277L74.1232 6.05542C73.8331 5.94904 73.5273 5.89423 73.2192 5.89335ZM54.4841 5.89331C55.3186 5.86335 56.144 6.08013 56.862 6.51786H56.863L56.3171 7.57228C55.7645 7.24617 55.1387 7.07027 54.5004 7.06038C53.8044 7.06038 53.3904 7.32226 53.3904 7.76003C53.3904 8.16026 53.8304 8.27291 54.3791 8.34802L54.976 8.43498C56.2411 8.62274 57.0113 9.17218 57.0113 10.2246C57.0113 11.362 56.035 12.1763 54.3522 12.1763C53.4511 12.2019 52.5658 11.9296 51.8269 11.3996L52.4046 10.3867C52.9668 10.8146 53.6532 11.0349 54.3531 11.0122C55.2196 11.0122 55.6817 10.7474 55.6817 10.2849C55.6817 9.94693 55.3505 9.76016 54.6574 9.65937L54.0605 9.5724C52.755 9.38464 52.0483 8.78579 52.0483 7.80747C52.0483 6.62063 53.0082 5.89331 54.4841 5.89331ZM90.8372 5.89335C90.207 5.87461 89.6174 6.21135 89.3007 6.77088V6.04257H88.0443V12.0271H89.3122V8.67219C89.3122 7.67311 89.7262 7.13256 90.557 7.13256C90.8285 7.12861 91.0981 7.18 91.3503 7.28277L91.7402 6.05542C91.4504 5.94915 91.145 5.89434 90.8372 5.89335ZM77.6093 12.1764C75.732 12.1764 74.4996 10.8492 74.4996 9.03585L74.5006 9.03486V9.02992C74.5006 7.21557 75.7329 5.88841 77.6102 5.88841C78.3712 5.84985 79.1188 6.10469 79.7061 6.60289L79.0977 7.65532C78.6593 7.31246 78.1248 7.12393 77.5737 7.11774C76.5628 7.13059 75.8176 7.88261 75.8176 9.03288C75.8176 10.1822 76.5599 10.947 77.5737 10.947C78.1248 10.9409 78.6593 10.7523 79.0977 10.4095L79.7061 11.4619C79.1189 11.9599 78.3708 12.2159 77.6093 12.1764ZM86.3787 12.0173V9.0359V9.03491V6.03571H85.1098V6.76303C84.671 6.18171 83.9849 5.85466 83.2691 5.8855C81.6353 5.8855 80.3472 7.19982 80.3472 9.028C80.3472 10.8542 81.6276 12.1695 83.2691 12.1695C83.9844 12.2001 84.6708 11.873 85.1098 11.292V12.0173H86.3787ZM83.4271 7.12073C82.3287 7.12073 81.6597 7.98217 81.6595 9.03538C81.6597 10.0846 82.3297 10.95 83.4271 10.95C84.4764 10.95 85.1831 10.1219 85.1831 9.03488C85.1831 7.94786 84.4764 7.12073 83.4271 7.12073ZM66.352 5.89338C64.6479 5.89338 63.4503 7.17014 63.4503 9.03587C63.4503 10.9372 64.6942 12.1764 66.4377 12.1764C67.3083 12.2077 68.1597 11.9087 68.8291 11.3364L68.2081 10.3719C67.7241 10.7698 67.1242 10.99 66.5041 10.9975C65.6858 10.9975 64.9425 10.6101 64.7596 9.53195H69.09L69.0923 9.49949C69.1032 9.34819 69.1141 9.19614 69.1141 9.03291C69.1141 7.16816 67.979 5.89041 66.3452 5.89041L66.353 5.89338H66.352ZM67.8039 8.51016C67.6701 7.58375 67.1469 7.0581 66.3294 7.0575L66.3309 7.0575H66.328L66.3294 7.0575C65.4263 7.05814 64.9165 7.64595 64.7818 8.51016H67.8039ZM99.936 11.6433C99.8669 11.5384 99.7518 11.4754 99.6285 11.4749H99.6302C99.5768 11.4735 99.5236 11.4836 99.4741 11.5045C99.3826 11.5423 99.3098 11.6164 99.2723 11.71C99.2347 11.8035 99.2356 11.9087 99.2747 12.0016C99.3352 12.1446 99.4734 12.2365 99.6254 12.2348C99.7762 12.2355 99.9128 12.1437 99.9723 12.0016C100.019 11.8834 100.006 11.749 99.936 11.6433ZM99.6287 12.1498C99.7036 12.1504 99.7755 12.1197 99.828 12.0648C99.8958 11.995 99.9256 11.8953 99.9074 11.7985C99.8893 11.7018 99.8256 11.6205 99.7374 11.5815C99.702 11.5665 99.6639 11.5591 99.6256 11.5598C99.5095 11.5604 99.405 11.632 99.3599 11.7417C99.3148 11.8514 99.3378 11.9781 99.4184 12.0638C99.4743 12.1205 99.5502 12.1515 99.6287 12.1498ZM99.6287 12.1498L99.6256 12.1497H99.6304L99.6287 12.1498ZM99.7498 11.704C99.7202 11.6822 99.684 11.6717 99.6477 11.6744L99.4887 11.6773V12.0271H99.5619V11.8947H99.5966L99.7007 12.0271H99.7893L99.6766 11.8947C99.7066 11.8923 99.7351 11.8798 99.7575 11.8591C99.7768 11.8404 99.7864 11.8147 99.7864 11.787C99.7884 11.7554 99.7739 11.7238 99.7498 11.704ZM99.5618 11.7397V11.8346H99.6476C99.6627 11.8391 99.6788 11.8391 99.6939 11.8346C99.7055 11.8268 99.7121 11.8132 99.7112 11.799C99.7117 11.7852 99.7052 11.7721 99.6939 11.7645C99.6788 11.76 99.6627 11.76 99.6476 11.7645L99.5618 11.7397ZM95.1954 7.12073C94.0979 7.12073 93.4278 7.98244 93.4278 9.03488C93.4278 10.0844 94.0979 10.95 95.1954 10.95C96.2448 10.95 96.9515 10.1219 96.9515 9.03488C96.9515 7.94786 96.2448 7.12073 95.1954 7.12073ZM50.5957 9.03484V6.03563H49.3269V6.76295C48.8878 6.18663 48.205 5.86288 47.4928 5.89333C45.8591 5.89333 44.5709 7.20764 44.5709 9.03582C44.5709 10.862 45.8514 12.1763 47.4928 12.1763C48.2091 12.208 48.8946 11.8799 49.3336 11.2998V12.0242H50.6025L50.5948 9.03484H50.5957ZM47.6441 7.12073C46.5456 7.12073 45.8765 7.98244 45.8765 9.03488C45.8765 10.0873 46.5466 10.95 47.6441 10.95C48.6935 10.95 49.4001 10.1219 49.4001 9.03488C49.4001 7.94786 48.6935 7.12073 47.6441 7.12073Z" fill="#231F20"/>
</svg>
