 <svg xmlns="http://www.w3.org/2000/svg" viewBox="0 0 319.619 125.619">
                        <defs>
                            <clipPath id="a" clipPathUnits="userSpaceOnUse">
                                <path d="M0 283.46h283.46V0H0z" />
                            </clipPath>
                        </defs>
                        <g clip-path="url(#a)" transform="matrix(1.33333 0 0 -1.33333 -29.164 251.783)">
                            <path d="M204.328 118.87h-26.41a1.5 1.5 0 000 3h26.265c1 .21 7.94 1.962 8.25 10.103.307 8.074-4.322 8.882-5.073 8.96h-16.95c-6.798 1.133-8.22 7.246-8.024 10.496-.038 8.448 7.093 12.23 10.876 13.05.105.023.212.035.32.035h23.78a1.5 1.5 0 000-3h-23.604c-1.15-.293-8.434-2.454-8.372-10.117 0-.037 0-.074-.003-.11-.017-.266-.326-6.31 5.39-7.356 0 0 16.743.004 16.731 0 .084-.004 8.362-.63 7.926-12.072-.336-8.847-7.244-12.35-10.849-12.969a1.533 1.533 0 00-.253-.02M227.32 153.127c-.169-.77-1.17-5.374-2.156-10.602l32.082.27c.42 2.612 1.341 8.786 1.341 12.62 0 3.508-4.215 5.16-5.152 5.485h-17.294c-5.536 0-8.478-6.916-8.82-7.773m26.78-34.416h-24.373a1.43 1.43 0 00-.16.01c-3.213.343-9.327 2.58-9.464 8.582-.144 6.38 4.13 25.762 4.311 26.584.015.067.034.133.058.197.15.401 3.733 9.816 11.668 9.816h17.531c.141 0 .282-.02.416-.059.307-.089 7.5-2.238 7.5-8.426 0-5.2-1.526-13.996-1.59-14.368a1.5 1.5 0 00-1.466-1.242l-33.919-.284c-.856-4.822-1.566-9.656-1.509-12.15.106-4.646 5.952-5.56 6.715-5.66H254.1a1.5 1.5 0 000-3M138.767 128.403c3.052-5.811 7.762-6.678 8.457-6.775l15.094.43c5.245 1.687 7.154 7.197 7.37 7.876l4.153 25.349c.434 2.825-3.896 5.847-5.676 5.834-1.098-.004-4.611-.016-8.125-.022-2.121-.004-4.244-.004-5.833-.003-1.088.002-1.875.003-2.45.039-2.54-.435-7.063-4.473-8.463-8.231-.263-1.181-2.304-12.3-4.527-24.497m-6.583-29.374a1.5 1.5 0 00-1.478 1.767s2.389 13.21 4.795 26.42a9451.456 9451.456 0 003.325 18.168c.458 2.48.84 4.547 1.116 5.995.226 1.196.375 1.98.545 2.498l-.027.009c1.695 4.63 6.973 9.594 10.86 10.213.138.022.275.024.408.009.992-.034 10.5-.013 16.778.01h.005c1.455.033 9.228-2.91 8.323-9.065-.008-.054-.008-.11-.017-.163l-4.184-25.54a1.548 1.548 0 00-.036-.164c-.091-.32-2.29-7.864-9.601-10.057a1.405 1.405 0 00-.387-.063l-15.412-.44a.926.926 0 00-.183.006c-.244.022-5.113.54-9.028 5.479-1.66-9.118-3.318-18.264-4.328-23.85a1.5 1.5 0 00-1.474-1.232" fill="#0560aa" />
                            <path d="M111.922 170.441a4.185 4.185 0 10-8.37 0 4.185 4.185 0 008.37 0M102.445 184.652a4.185 4.185 0 10-8.37 0 4.185 4.185 0 008.37 0M92.929 170.441a4.185 4.185 0 10-8.37 0 4.185 4.185 0 008.37 0M111.44 113.455a4.185 4.185 0 10-8.372.001 4.185 4.185 0 008.371 0M102.425 126.815a4.185 4.185 0 10-8.37 0 4.185 4.185 0 008.37 0M83.238 126.815a3.46 3.46 0 10-6.922 0 3.46 3.46 0 006.922 0M92.472 113.455a3.46 3.46 0 10-6.922 0 3.46 3.46 0 006.922 0M82.995 98.808a3.46 3.46 0 10-6.922 0 3.46 3.46 0 006.922 0M73.259 113.455a2.682 2.682 0 10-5.365 0 2.682 2.682 0 005.365 0M40.285 141.496a2.682 2.682 0 10-5.365 0 2.682 2.682 0 005.365 0M45.088 155.787a2.682 2.682 0 10-5.364 0 2.682 2.682 0 005.364 0M54.175 170.441a2.682 2.682 0 10-5.364 0 2.682 2.682 0 005.364 0M63.392 184.336a2.682 2.682 0 10-5.364 0 2.682 2.682 0 005.364 0M63.652 98.808a2.682 2.682 0 10-5.364 0 2.682 2.682 0 005.364 0M54.435 113.455a2.682 2.682 0 10-5.365 0 2.682 2.682 0 005.365 0M44.958 126.815a2.682 2.682 0 10-5.364 0 2.682 2.682 0 005.364 0M38.597 113.455a1.383 1.383 0 10-2.765 0 1.383 1.383 0 002.765 0M29.963 126.815a1.383 1.383 0 10-2.766 0 1.383 1.383 0 002.766 0M24.64 141.744a1.384 1.384 0 10-2.767.001 1.384 1.384 0 002.767-.001M29.573 155.764a1.383 1.383 0 10-2.765 0 1.383 1.383 0 002.765 0M38.92 170.304a1.383 1.383 0 10-2.766 0 1.383 1.383 0 002.766 0M64.301 126.815a3.46 3.46 0 10-6.922 0 3.46 3.46 0 006.922 0M54.565 141.462a3.46 3.46 0 10-6.922 0 3.46 3.46 0 006.922 0M64.171 155.787a3.46 3.46 0 10-6.922 0 3.46 3.46 0 006.922 0M73.778 170.441a3.46 3.46 0 10-6.922 0 3.46 3.46 0 006.922 0M82.865 184.591a3.46 3.46 0 10-6.922 0 3.46 3.46 0 006.922 0M74.258 141.462a4.185 4.185 0 10-8.371 0 4.185 4.185 0 008.37 0M83.593 155.787a4.185 4.185 0 10-8.37.001 4.185 4.185 0 008.37 0M102.425 98.808a4.185 4.185 0 10-8.37 0 4.185 4.185 0 008.37 0" fill="#fdb717" />
                            <path d="M134.121 140.373H72.198v2.566h61.923zM101.978 154.504H82.504v2.566h19.474z" fill="#fdb717" />
                            <path d="M110.34 140.517L99.625 157.07h2.99l10.717-16.553zM111.439 125.532h-9.934v2.566h9.934z" fill="#fdb717" />
                            <path d="M109.074 125.532l8.888 14.986h2.566l-8.888-14.986z" fill="#fdb717" />
                        </g>
                    </svg>