<?xml version="1.0" encoding="UTF-8"?>
<svg xmlns="http://www.w3.org/2000/svg" xmlns:xlink="http://www.w3.org/1999/xlink" width="300px" height="100px" viewBox="0 0 300 100" version="1.1">
<defs>
<linearGradient id="linear0" gradientUnits="userSpaceOnUse" x1="507.94" y1="117.79" x2="584.14" y2="117.79" gradientTransform="matrix(0.376171,0,0,0.423989,0,0.0583171)">
<stop offset="0" style="stop-color:rgb(100%,100%,100%);stop-opacity:0;"/>
<stop offset="0.08" style="stop-color:rgb(95.294118%,95.686275%,95.294118%);stop-opacity:0.101961;"/>
<stop offset="0.22" style="stop-color:rgb(83.529412%,83.529412%,83.529412%);stop-opacity:0.360784;"/>
<stop offset="0.41" style="stop-color:rgb(64.313725%,64.705882%,64.313725%);stop-opacity:0.768627;"/>
<stop offset="0.51" style="stop-color:rgb(53.72549%,54.117647%,53.72549%);stop-opacity:1;"/>
<stop offset="0.6" style="stop-color:rgb(63.529412%,63.529412%,63.529412%);stop-opacity:0.788235;"/>
<stop offset="0.88" style="stop-color:rgb(89.803922%,89.803922%,89.803922%);stop-opacity:0.219608;"/>
<stop offset="1" style="stop-color:rgb(100%,100%,100%);stop-opacity:0;"/>
</linearGradient>
</defs>
<g id="surface1">
<path style=" stroke:none;fill-rule:nonzero;fill:rgb(43.921569%,43.921569%,43.137255%);fill-opacity:1;" d="M 227.867188 34.542969 L 226.398438 34.542969 L 228.597656 22.582031 L 225.617188 22.582031 L 225.882812 21.113281 L 233.339844 21.113281 L 233.070312 22.582031 L 230.0625 22.582031 Z M 227.867188 34.542969 "/>
<path style=" stroke:none;fill-rule:nonzero;fill:rgb(43.921569%,43.921569%,43.137255%);fill-opacity:1;" d="M 234.304688 21.113281 L 235.777344 21.113281 L 234.039062 30.554688 C 233.664062 32.53125 234.058594 33.453125 235.542969 33.453125 C 237.097656 33.453125 237.761719 32.433594 238.113281 30.554688 L 239.847656 21.113281 L 241.316406 21.113281 L 239.582031 30.554688 C 239.097656 33.132812 237.628906 34.796875 235.292969 34.796875 C 232.890625 34.796875 232.070312 33.328125 232.589844 30.554688 Z M 234.304688 21.113281 "/>
<path style=" stroke:none;fill-rule:nonzero;fill:rgb(43.921569%,43.921569%,43.137255%);fill-opacity:1;" d="M 247.144531 21.113281 L 249.613281 21.113281 L 250.03125 31.761719 L 250.0625 31.761719 L 254.414062 21.113281 L 256.886719 21.113281 L 254.414062 34.542969 L 252.949219 34.542969 L 255.101562 22.808594 L 255.070312 22.808594 L 250.273438 34.542969 L 248.804688 34.542969 L 248.320312 22.808594 L 248.273438 22.808594 L 246.121094 34.542969 L 244.648438 34.542969 Z M 247.144531 21.113281 "/>
<path style=" stroke:none;fill-rule:nonzero;fill:rgb(43.921569%,43.921569%,43.137255%);fill-opacity:1;" d="M 258.847656 21.113281 L 265.003906 21.113281 L 264.738281 22.582031 L 260.046875 22.582031 L 259.265625 26.796875 L 263.695312 26.796875 L 263.425781 28.261719 L 258.996094 28.261719 L 258.113281 33.074219 L 263.003906 33.074219 L 262.742188 34.542969 L 256.382812 34.542969 Z M 258.847656 21.113281 "/>
<path style=" stroke:none;fill-rule:nonzero;fill:rgb(43.921569%,43.921569%,43.137255%);fill-opacity:1;" d="M 269.972656 30.6875 C 269.542969 33.074219 268.707031 34.804688 266.238281 34.804688 C 264.238281 34.804688 263.738281 33.335938 264.003906 31.738281 L 264.21875 30.632812 L 265.621094 30.632812 L 265.4375 31.605469 C 265.238281 32.71875 265.472656 33.453125 266.472656 33.453125 C 267.808594 33.453125 268.171875 32.492188 268.527344 30.632812 L 270.273438 21.113281 L 271.742188 21.113281 Z M 269.972656 30.6875 "/>
<path style=" stroke:none;fill-rule:nonzero;fill:rgb(43.921569%,43.921569%,43.137255%);fill-opacity:1;" d="M 279.953125 27.828125 C 279.335938 31.222656 278.117188 34.804688 274.832031 34.804688 C 271.542969 34.804688 271.660156 31.214844 272.277344 27.828125 C 272.894531 24.445312 274.097656 20.832031 277.398438 20.832031 C 280.703125 20.832031 280.585938 24.441406 279.953125 27.828125 Z M 273.816406 27.828125 C 273.226562 30.933594 273.027344 33.453125 275.082031 33.453125 C 277.136719 33.453125 277.832031 30.933594 278.417969 27.828125 C 279.007812 24.726562 279.171875 22.207031 277.152344 22.207031 C 275.132812 22.207031 274.398438 24.726562 273.816406 27.828125 Z M 273.816406 27.828125 "/>
<path style=" stroke:none;fill-rule:nonzero;fill:rgb(43.921569%,43.921569%,43.137255%);fill-opacity:1;" d="M 282.957031 21.113281 L 286.808594 21.113281 C 288.6875 21.113281 289.628906 22.355469 289.246094 24.480469 C 288.976562 25.910156 288.246094 27.507812 286.773438 27.871094 L 286.773438 27.910156 C 287.777344 28.042969 288.195312 29 288.046875 30.144531 L 287.726562 32.4375 C 287.511719 33.925781 287.660156 34.304688 287.976562 34.558594 L 286.210938 34.558594 C 286.085938 34.300781 286.039062 34.003906 286.074219 33.710938 C 286.074219 33.339844 286.101562 32.964844 286.15625 32.597656 L 286.441406 30.511719 C 286.65625 28.667969 285.792969 28.558594 285.039062 28.558594 L 283.058594 28.558594 L 281.957031 34.539062 L 280.484375 34.539062 Z M 283.304688 27.195312 L 284.761719 27.195312 C 285.625 27.195312 287.195312 27.195312 287.679688 24.597656 C 287.933594 23.265625 287.304688 22.480469 285.925781 22.480469 L 284.179688 22.480469 Z M 283.304688 27.195312 "/>
<path style=" stroke:none;fill-rule:nonzero;fill:rgb(43.921569%,43.921569%,43.137255%);fill-opacity:1;" d="M 222.867188 38.425781 L 227.960938 38.425781 L 229.132812 61.5 L 224.84375 61.5 L 224.789062 56.617188 L 219.339844 56.617188 L 217.503906 61.5 L 213.207031 61.5 Z M 220.75 52.800781 L 224.757812 52.800781 L 224.703125 42.433594 L 224.644531 42.433594 Z M 220.75 52.800781 "/>
<path style=" stroke:none;fill-rule:nonzero;fill:rgb(43.921569%,43.921569%,43.137255%);fill-opacity:1;" d="M 230.59375 61.5 L 234.835938 38.425781 L 238.972656 38.425781 L 235.417969 57.683594 L 242.730469 57.683594 L 242.042969 61.5 Z M 230.59375 61.5 "/>
<path style=" stroke:none;fill-rule:nonzero;fill:rgb(43.921569%,43.921569%,43.137255%);fill-opacity:1;" d="M 244.054688 61.5 L 248.300781 38.425781 L 252.4375 38.425781 L 248.195312 61.5 Z M 244.054688 61.5 "/>
<path style=" stroke:none;fill-rule:nonzero;fill:rgb(43.921569%,43.921569%,43.137255%);fill-opacity:1;" d="M 259.480469 38.425781 L 264.578125 38.425781 L 265.757812 61.5 L 261.457031 61.5 L 261.402344 56.617188 L 255.953125 56.617188 L 254.117188 61.5 L 249.820312 61.5 Z M 257.355469 52.800781 L 261.371094 52.800781 L 261.316406 42.433594 L 261.253906 42.433594 Z M 257.355469 52.800781 "/>
<path style=" stroke:none;fill-rule:nonzero;fill:rgb(43.921569%,43.921569%,43.137255%);fill-opacity:1;" d="M 271.636719 38.425781 L 278.40625 38.425781 C 284.140625 38.425781 284.34375 42.816406 283.109375 49.640625 C 281.605469 57.78125 279.414062 61.511719 273.910156 61.511719 L 267.390625 61.511719 Z M 272.152344 58.074219 L 273.984375 58.074219 C 276.855469 58.074219 277.796875 56.039062 278.945312 49.765625 C 279.921875 44.53125 280.035156 41.851562 276.878906 41.851562 L 275.136719 41.851562 Z M 272.152344 58.074219 "/>
<path style=" stroke:none;fill-rule:nonzero;fill:rgb(43.921569%,43.921569%,43.137255%);fill-opacity:1;" d="M 294.515625 37.972656 C 300.707031 37.972656 300.589844 42.949219 299.269531 49.960938 C 297.949219 56.976562 296.316406 61.960938 290.097656 61.960938 C 283.882812 61.960938 284.007812 56.976562 285.339844 49.960938 C 286.671875 42.949219 288.292969 37.972656 294.515625 37.972656 Z M 290.726562 58.523438 C 293.164062 58.523438 293.996094 56.164062 295.144531 49.960938 C 296.289062 43.757812 296.316406 41.398438 293.882812 41.398438 C 291.449219 41.398438 290.613281 43.789062 289.46875 49.960938 C 288.320312 56.136719 288.292969 58.523438 290.726562 58.523438 Z M 290.726562 58.523438 "/>
<path style=" stroke:none;fill-rule:nonzero;fill:url(#linear0);" d="M 219.34375 0.0585938 L 218.53125 3.199219 L 217.707031 6.335938 L 216.050781 12.613281 L 212.664062 25.132812 C 210.40625 33.484375 208.097656 41.8125 205.78125 50.148438 L 202.273438 62.625 C 201.089844 66.777344 199.925781 70.941406 198.71875 75.085938 L 195.128906 87.53125 L 193.296875 93.742188 L 192.382812 96.851562 L 191.472656 99.941406 L 192.285156 96.800781 L 193.109375 93.664062 L 194.765625 87.386719 L 198.152344 74.863281 C 199.28125 70.6875 200.410156 66.523438 201.566406 62.355469 L 205.011719 49.859375 C 207.347656 41.542969 209.679688 33.222656 212.078125 24.925781 L 215.671875 12.476562 L 217.503906 6.265625 L 218.417969 3.15625 Z M 219.34375 0.0585938 "/>
<path style=" stroke:none;fill-rule:evenodd;fill:rgb(100%,30.980392%,0%);fill-opacity:1;" d="M 15.070312 30.203125 C 15.070312 30.203125 13.210938 30.050781 14.414062 31.714844 C 15.847656 33.6875 17.097656 36.070312 19.9375 36.097656 C 22.777344 36.121094 25.511719 36 25.511719 36 C 25.511719 36 26.859375 36.070312 25.558594 34.304688 C 24.253906 32.535156 22.925781 30.023438 20.035156 30.0625 C 17.144531 30.105469 15.070312 30.203125 15.070312 30.203125 Z M 15.070312 30.203125 "/>
<path style=" stroke:none;fill-rule:evenodd;fill:rgb(100%,67.45098%,0%);fill-opacity:1;" d="M 36.265625 32.429688 C 36.265625 32.429688 40.566406 31.695312 45.011719 38.089844 C 43.859375 37.695312 41.757812 36.960938 39.660156 36.878906 C 38.71875 35.539062 36.265625 32.429688 36.265625 32.429688 Z M 36.265625 32.429688 "/>
<path style=" stroke:none;fill-rule:evenodd;fill:rgb(100%,75.686275%,0%);fill-opacity:1;" d="M 36.824219 24.921875 C 36.824219 24.921875 40.113281 24.363281 43.523438 29.253906 C 42.195312 28.753906 40.816406 28.445312 39.421875 28.328125 C 38.703125 27.300781 36.824219 24.921875 36.824219 24.921875 Z M 36.824219 24.921875 "/>
<path style=" stroke:none;fill-rule:evenodd;fill:rgb(100%,75.686275%,0%);fill-opacity:1;" d="M 27.195312 22.839844 C 27.195312 22.839844 31.414062 22.105469 35.769531 28.386719 C 34.640625 28.003906 32.582031 27.28125 30.527344 27.199219 C 29.605469 25.886719 27.195312 22.839844 27.195312 22.839844 Z M 27.195312 22.839844 "/>
<path style=" stroke:none;fill-rule:evenodd;fill:rgb(100%,75.686275%,0%);fill-opacity:1;" d="M 30.140625 16.761719 C 30.140625 16.761719 33.238281 16.230469 36.445312 20.832031 C 35.195312 20.367188 33.902344 20.074219 32.589844 19.964844 C 31.910156 18.996094 30.140625 16.761719 30.140625 16.761719 Z M 30.140625 16.761719 "/>
<path style=" stroke:none;fill-rule:evenodd;fill:rgb(100%,30.980392%,0%);fill-opacity:1;" d="M 25.414062 30.355469 C 25.414062 30.355469 30.847656 29.484375 36.460938 37.097656 C 35.007812 36.636719 32.351562 35.757812 29.71875 35.671875 C 28.515625 34.0625 25.414062 30.355469 25.414062 30.355469 Z M 25.414062 30.355469 "/>
<path style=" stroke:none;fill-rule:evenodd;fill:rgb(100%,0.392157%,4.313725%);fill-opacity:1;" d="M 31.597656 38.761719 C 31.597656 38.761719 37.316406 39.03125 39.367188 41.125 C 39.699219 41.609375 42.75 46.121094 43.558594 48.539062 C 40.460938 48.054688 38.746094 47.898438 37.078125 47.78125 C 37.066406 47.78125 34.445312 42.574219 31.597656 38.761719 Z M 31.597656 38.761719 "/>
<path style=" stroke:none;fill-rule:evenodd;fill:rgb(100%,0.392157%,4.313725%);fill-opacity:1;" d="M 19.484375 40.453125 C 19.484375 40.453125 17.777344 38.117188 19.636719 37.90625 C 21.496094 37.699219 27.222656 36.339844 29.6875 40.175781 C 32.152344 44.011719 35.210938 48.253906 33.449219 48.425781 C 31.6875 48.601562 24.554688 49.886719 23.046875 47.03125 C 21.539062 44.179688 19.484375 40.453125 19.484375 40.453125 Z M 19.484375 40.453125 "/>
<path style=" stroke:none;fill-rule:evenodd;fill:rgb(81.176471%,7.058824%,6.666667%);fill-opacity:1;" d="M 26.171875 54.507812 C 26.171875 54.507812 24.421875 51.714844 27.296875 51.597656 C 30.175781 51.484375 36.015625 50.328125 37.457031 54.21875 C 38.894531 58.109375 40.089844 61.851562 40.089844 61.851562 C 40.089844 61.851562 41.59375 65.335938 38.75 65.570312 C 35.90625 65.800781 31.066406 66.839844 29.984375 64.640625 C 28.902344 62.441406 27.40625 57.296875 26.171875 54.507812 Z M 26.171875 54.507812 "/>
<path style=" stroke:none;fill-rule:evenodd;fill:rgb(100%,0.392157%,4.313725%);fill-opacity:1;" d="M 4.097656 43.402344 C 4.097656 43.402344 2.632812 40.207031 5.847656 39.332031 C 7.140625 39.109375 14.566406 37.011719 16.113281 39.757812 C 17.65625 42.5 19.464844 46.035156 19.464844 46.035156 C 19.464844 46.035156 21.171875 48.578125 18.027344 49.292969 C 14.882812 50.003906 9.613281 50.628906 9.613281 50.628906 C 9.613281 50.628906 6.933594 51.332031 5.695312 48.082031 C 5.089844 46.554688 4.554688 44.992188 4.097656 43.402344 Z M 4.097656 43.402344 "/>
<path style=" stroke:none;fill-rule:evenodd;fill:rgb(65.882353%,7.058824%,4.313725%);fill-opacity:1;" d="M 9.152344 57.761719 C 9.152344 57.761719 7.808594 54.507812 10.53125 53.90625 C 13.257812 53.304688 19.148438 52.570312 19.148438 52.570312 C 19.148438 52.570312 22.085938 51.75 23.472656 55.476562 C 24.859375 59.203125 27.859375 66.46875 25.792969 67.222656 C 23.730469 67.976562 16.410156 69.253906 16.410156 69.253906 C 16.410156 69.253906 13.421875 70.195312 11.976562 66.117188 C 10.53125 62.035156 9.152344 57.761719 9.152344 57.761719 Z M 9.152344 57.761719 "/>
<path style=" stroke:none;fill-rule:evenodd;fill:rgb(100%,30.980392%,0%);fill-opacity:1;" d="M 8.542969 30.480469 L 1.300781 31.285156 C 1.300781 31.285156 -0.519531 31.5 0.148438 33.222656 C 0.8125 34.945312 1.671875 38.34375 5.601562 37.734375 C 9.53125 37.125 12.664062 36.707031 12.664062 36.707031 C 12.664062 36.707031 14.171875 36.425781 13.238281 34.449219 C 12.933594 33.859375 11.527344 30.273438 8.542969 30.480469 Z M 8.542969 30.480469 "/>
<path style=" stroke:none;fill-rule:evenodd;fill:rgb(34.509804%,33.72549%,33.333333%);fill-opacity:1;" d="M 102.878906 71.160156 C 102.878906 71.160156 102.71875 70.757812 103.050781 70.6875 C 103.386719 70.613281 104.109375 70.523438 104.109375 70.523438 C 104.339844 70.472656 104.570312 70.628906 104.640625 70.882812 C 104.808594 71.335938 105.175781 72.230469 104.925781 72.324219 C 104.671875 72.417969 103.773438 72.574219 103.773438 72.574219 C 103.53125 72.628906 103.289062 72.460938 103.230469 72.1875 C 103.070312 71.6875 102.878906 71.160156 102.878906 71.160156 Z M 102.878906 71.160156 "/>
<path style=" stroke:none;fill-rule:nonzero;fill:rgb(100%,0.392157%,4.313725%);fill-opacity:1;" d="M 63.972656 20.832031 L 95.449219 20.832031 C 96.667969 20.78125 97.863281 21.203125 98.835938 22.035156 C 99.722656 22.828125 100.449219 23.828125 100.964844 24.96875 C 101.492188 26.136719 101.863281 27.390625 102.0625 28.683594 C 102.253906 29.839844 102.355469 31.015625 102.371094 32.191406 C 102.382812 34.273438 101.910156 36.320312 101 38.128906 C 100.09375 39.910156 98.90625 41.492188 97.496094 42.792969 C 96.101562 44.089844 94.527344 45.121094 92.839844 45.84375 C 91.289062 46.53125 89.636719 46.898438 87.972656 46.925781 L 68.703125 46.925781 L 63.902344 61.765625 L 50.738281 61.765625 Z M 69.941406 43.097656 L 76.519531 36.519531 L 87.492188 36.519531 C 87.535156 36.519531 87.644531 36.402344 87.800781 36.167969 C 87.960938 35.9375 88.132812 35.671875 88.316406 35.363281 C 88.5 35.054688 88.667969 34.761719 88.824219 34.476562 C 88.953125 34.273438 89.058594 34.050781 89.140625 33.820312 L 89.277344 33.429688 C 89.207031 33.3125 89.160156 33.179688 89.140625 33.039062 C 88.925781 32.671875 88.683594 32.328125 88.417969 32.007812 C 88.082031 31.582031 87.859375 31.34375 87.773438 31.34375 L 73.730469 31.34375 Z M 69.941406 43.097656 "/>
<path style=" stroke:none;fill-rule:nonzero;fill:rgb(100%,0.392157%,4.313725%);fill-opacity:1;" d="M 116.085938 31.28125 L 103.128906 31.28125 L 103.128906 31.207031 C 103.398438 30.601562 103.734375 30.035156 104.121094 29.511719 C 104.742188 28.578125 105.472656 27.554688 106.316406 26.417969 C 107.160156 25.28125 108.03125 24.195312 108.925781 23.136719 C 109.609375 22.273438 110.382812 21.5 111.222656 20.832031 L 145.578125 20.832031 C 145.109375 21.820312 144.570312 22.765625 143.96875 23.65625 C 143.214844 24.816406 142.410156 25.964844 141.5625 27.09375 C 140.796875 28.128906 139.976562 29.109375 139.101562 30.03125 C 138.300781 30.878906 137.714844 31.265625 137.347656 31.265625 L 129.261719 31.265625 L 119.382812 61.792969 L 106.214844 61.792969 Z M 116.085938 31.28125 "/>
<path style=" stroke:none;fill-rule:nonzero;fill:rgb(100%,0.392157%,4.313725%);fill-opacity:1;" d="M 172.726562 61.816406 L 180.132812 38.777344 L 161.488281 61.816406 L 156.75 61.816406 L 152.988281 38.777344 L 145.578125 61.816406 L 132.414062 61.816406 L 145.640625 20.832031 L 162.238281 20.832031 L 165.738281 41.394531 L 182.53125 20.832031 L 199.128906 20.832031 L 185.890625 61.800781 Z M 172.726562 61.816406 "/>
<path style=" stroke:none;fill-rule:nonzero;fill:rgb(43.921569%,43.921569%,43.137255%);fill-opacity:1;" d="M 71.3125 82.386719 L 71.3125 82.3125 C 71.308594 82.25 71.300781 82.191406 71.28125 82.132812 C 71.269531 82.082031 71.222656 82.042969 71.175781 82.046875 L 69.273438 82.046875 C 69.089844 82.046875 68.914062 81.992188 68.761719 81.886719 C 68.613281 81.785156 68.488281 81.648438 68.382812 81.492188 C 68.273438 81.332031 68.1875 81.152344 68.128906 80.960938 C 68.074219 80.777344 68.046875 80.585938 68.046875 80.390625 C 68.050781 80.1875 68.097656 79.988281 68.175781 79.804688 C 68.269531 79.585938 68.382812 79.378906 68.519531 79.1875 C 68.652344 78.996094 68.816406 78.828125 68.996094 78.691406 C 69.152344 78.566406 69.335938 78.496094 69.527344 78.492188 L 74.382812 78.492188 C 74.230469 78.746094 74.0625 78.992188 73.882812 79.222656 C 73.695312 79.46875 73.488281 79.707031 73.257812 79.953125 L 70.117188 79.953125 C 70.050781 79.953125 69.992188 80.003906 69.9375 80.113281 C 69.894531 80.191406 69.871094 80.277344 69.863281 80.371094 L 69.863281 80.425781 C 69.863281 80.425781 69.863281 80.425781 69.898438 80.472656 L 69.957031 80.53125 C 69.988281 80.566406 70.027344 80.589844 70.066406 80.613281 L 70.148438 80.648438 L 71.957031 80.648438 C 72.144531 80.644531 72.324219 80.703125 72.480469 80.816406 C 72.632812 80.921875 72.761719 81.070312 72.855469 81.238281 C 72.949219 81.40625 73.015625 81.589844 73.058594 81.78125 C 73.101562 81.957031 73.125 82.136719 73.128906 82.316406 L 73.128906 82.378906 C 73.125 82.585938 73.085938 82.789062 73.011719 82.976562 C 72.9375 83.1875 72.835938 83.386719 72.714844 83.5625 C 72.59375 83.738281 72.449219 83.886719 72.285156 84.007812 C 72.136719 84.121094 71.964844 84.183594 71.785156 84.1875 L 66.933594 84.1875 C 66.988281 84.066406 67.054688 83.949219 67.125 83.839844 C 67.226562 83.683594 67.328125 83.523438 67.441406 83.363281 C 67.554688 83.203125 67.65625 83.058594 67.75 82.941406 C 67.84375 82.820312 67.902344 82.75 67.921875 82.75 L 71.15625 82.75 C 71.25 82.75 71.308594 82.71875 71.320312 82.65625 C 71.339844 82.589844 71.347656 82.519531 71.347656 82.453125 Z M 71.3125 82.386719 "/>
<path style=" stroke:none;fill-rule:nonzero;fill:rgb(43.921569%,43.921569%,43.137255%);fill-opacity:1;" d="M 80.335938 78.496094 C 80.269531 78.632812 80.195312 78.765625 80.109375 78.890625 C 80.003906 79.050781 79.894531 79.207031 79.777344 79.367188 C 79.671875 79.515625 79.554688 79.65625 79.433594 79.789062 C 79.367188 79.871094 79.285156 79.929688 79.191406 79.960938 L 76.257812 79.960938 L 75.714844 81.65625 L 76.621094 80.667969 L 78.820312 80.667969 L 77.457031 82.117188 L 75.578125 82.117188 L 75.367188 82.761719 L 78.996094 82.761719 L 78.949219 82.851562 L 78.871094 82.996094 C 78.847656 83.042969 78.824219 83.09375 78.796875 83.140625 L 78.746094 83.210938 C 78.675781 83.316406 78.601562 83.417969 78.519531 83.511719 C 78.417969 83.625 78.324219 83.738281 78.226562 83.839844 C 78.125 83.941406 78.042969 84.03125 77.972656 84.101562 C 77.9375 84.140625 77.898438 84.179688 77.855469 84.210938 L 73.070312 84.210938 L 74.90625 78.496094 Z M 80.335938 78.496094 "/>
<path style=" stroke:none;fill-rule:nonzero;fill:rgb(43.921569%,43.921569%,43.137255%);fill-opacity:1;" d="M 80.875 78.496094 L 85.121094 78.496094 C 85.308594 78.488281 85.492188 78.542969 85.648438 78.65625 C 85.785156 78.769531 85.894531 78.914062 85.96875 79.082031 C 86.046875 79.25 86.097656 79.429688 86.125 79.617188 C 86.152344 79.792969 86.167969 79.96875 86.167969 80.148438 C 86.183594 80.472656 86.097656 80.792969 85.929688 81.054688 C 85.769531 81.289062 85.566406 81.480469 85.335938 81.617188 C 85.085938 81.761719 84.820312 81.863281 84.542969 81.917969 C 84.277344 81.976562 84.003906 82.015625 83.730469 82.039062 L 85.613281 84.199219 L 83.574219 84.199219 L 81.613281 82.160156 L 81.507812 82.246094 L 80.878906 84.199219 L 79.050781 84.199219 Z M 84.324219 80.136719 C 84.324219 80.085938 84.3125 80.039062 84.292969 79.992188 C 84.273438 79.953125 84.226562 79.933594 84.148438 79.933594 L 82.238281 79.933594 L 81.691406 81.628906 L 82.53125 80.675781 L 84.054688 80.675781 C 84.144531 80.679688 84.226562 80.625 84.257812 80.53125 C 84.296875 80.453125 84.316406 80.367188 84.324219 80.277344 Z M 84.324219 80.136719 "/>
<path style=" stroke:none;fill-rule:nonzero;fill:rgb(43.921569%,43.921569%,43.137255%);fill-opacity:1;" d="M 91.257812 78.496094 L 93.222656 78.496094 L 89.835938 83.519531 L 89.703125 83.691406 C 89.644531 83.761719 89.585938 83.835938 89.515625 83.910156 C 89.453125 83.984375 89.382812 84.046875 89.308594 84.105469 C 89.261719 84.148438 89.203125 84.175781 89.140625 84.1875 L 87.570312 84.1875 C 87.496094 84.179688 87.429688 84.136719 87.386719 84.066406 C 87.332031 83.976562 87.289062 83.878906 87.257812 83.773438 C 87.21875 83.660156 87.183594 83.539062 87.160156 83.417969 C 87.136719 83.292969 87.113281 83.1875 87.09375 83.101562 L 86.519531 78.496094 L 88.175781 78.496094 L 88.632812 82.3125 Z M 91.257812 78.496094 "/>
<path style=" stroke:none;fill-rule:nonzero;fill:rgb(43.921569%,43.921569%,43.137255%);fill-opacity:1;" d="M 91.785156 84.183594 C 91.824219 84.097656 91.871094 84.019531 91.925781 83.945312 C 92.011719 83.816406 92.113281 83.671875 92.230469 83.519531 C 92.347656 83.367188 92.464844 83.210938 92.605469 83.066406 C 92.695312 82.941406 92.800781 82.832031 92.914062 82.734375 L 94.042969 82.734375 L 94.949219 79.945312 L 93.152344 79.945312 C 93.1875 79.863281 93.230469 79.785156 93.285156 79.714844 C 93.375 79.582031 93.476562 79.441406 93.589844 79.289062 C 93.707031 79.136719 93.828125 78.980469 93.96875 78.832031 C 94.0625 78.710938 94.171875 78.605469 94.289062 78.511719 L 99.058594 78.511719 C 98.992188 78.652344 98.914062 78.785156 98.832031 78.90625 C 98.730469 79.070312 98.617188 79.226562 98.5 79.382812 C 98.394531 79.53125 98.28125 79.675781 98.15625 79.804688 C 98.046875 79.917969 97.964844 79.976562 97.914062 79.976562 L 96.785156 79.976562 L 95.867188 82.734375 L 97.667969 82.734375 C 97.601562 82.871094 97.527344 83.003906 97.441406 83.125 C 97.339844 83.289062 97.230469 83.449219 97.113281 83.605469 C 97.003906 83.753906 96.890625 83.894531 96.765625 84.03125 C 96.65625 84.144531 96.574219 84.203125 96.527344 84.203125 L 91.785156 84.203125 Z M 91.785156 84.183594 "/>
<path style=" stroke:none;fill-rule:nonzero;fill:rgb(43.921569%,43.921569%,43.137255%);fill-opacity:1;" d="M 98.628906 81.5625 C 98.632812 81.195312 98.699219 80.835938 98.828125 80.5 C 98.960938 80.140625 99.144531 79.808594 99.371094 79.515625 C 99.59375 79.222656 99.863281 78.980469 100.160156 78.789062 C 100.449219 78.601562 100.78125 78.503906 101.113281 78.503906 L 105.046875 78.503906 C 104.863281 78.777344 104.667969 79.035156 104.488281 79.273438 C 104.300781 79.515625 104.09375 79.742188 103.875 79.953125 L 101.398438 79.953125 C 101.304688 79.957031 101.214844 79.988281 101.136719 80.042969 C 101.039062 80.113281 100.949219 80.191406 100.871094 80.285156 C 100.785156 80.390625 100.707031 80.503906 100.636719 80.625 C 100.570312 80.742188 100.515625 80.863281 100.476562 80.992188 C 100.433594 81.128906 100.40625 81.273438 100.398438 81.417969 C 100.40625 81.566406 100.4375 81.710938 100.492188 81.839844 C 100.558594 81.992188 100.640625 82.136719 100.734375 82.265625 C 100.832031 82.386719 100.941406 82.496094 101.0625 82.585938 C 101.160156 82.664062 101.277344 82.710938 101.398438 82.714844 L 103.671875 82.714844 C 103.527344 82.957031 103.363281 83.207031 103.179688 83.460938 C 102.988281 83.722656 102.773438 83.957031 102.539062 84.164062 L 101.789062 84.164062 C 101.402344 84.164062 101.015625 84.125 100.632812 84.046875 C 100.277344 83.972656 99.9375 83.828125 99.625 83.621094 C 99.328125 83.429688 99.082031 83.15625 98.90625 82.824219 C 98.714844 82.4375 98.621094 81.996094 98.636719 81.554688 Z M 98.628906 81.5625 "/>
<path style=" stroke:none;fill-rule:nonzero;fill:rgb(43.921569%,43.921569%,43.137255%);fill-opacity:1;" d="M 103.386719 84.183594 C 103.425781 84.097656 103.472656 84.019531 103.527344 83.945312 C 103.613281 83.816406 103.714844 83.671875 103.832031 83.519531 C 103.949219 83.367188 104.066406 83.210938 104.207031 83.066406 C 104.300781 82.945312 104.410156 82.839844 104.527344 82.75 L 105.65625 82.75 L 106.558594 79.960938 L 104.761719 79.960938 C 104.796875 79.875 104.84375 79.796875 104.894531 79.726562 C 104.980469 79.59375 105.082031 79.453125 105.199219 79.300781 C 105.316406 79.148438 105.441406 78.992188 105.574219 78.84375 C 105.671875 78.726562 105.777344 78.617188 105.890625 78.527344 L 110.660156 78.527344 C 110.597656 78.664062 110.523438 78.796875 110.441406 78.921875 C 110.335938 79.082031 110.222656 79.238281 110.105469 79.394531 C 110 79.546875 109.886719 79.6875 109.761719 79.820312 C 109.648438 79.929688 109.570312 79.988281 109.519531 79.988281 L 108.390625 79.988281 L 107.480469 82.734375 L 109.28125 82.734375 C 109.214844 82.871094 109.140625 83.003906 109.054688 83.125 C 108.949219 83.289062 108.839844 83.449219 108.726562 83.605469 C 108.617188 83.753906 108.5 83.894531 108.378906 84.03125 C 108.269531 84.144531 108.191406 84.203125 108.136719 84.203125 L 103.386719 84.203125 Z M 103.386719 84.183594 "/>
<path style=" stroke:none;fill-rule:nonzero;fill:rgb(43.921569%,43.921569%,43.137255%);fill-opacity:1;" d="M 115.953125 82.3125 C 115.765625 82.679688 115.527344 83.011719 115.242188 83.292969 C 114.960938 83.570312 114.640625 83.792969 114.292969 83.953125 C 113.945312 84.117188 113.574219 84.203125 113.199219 84.203125 L 112.25 84.203125 C 111.925781 84.203125 111.597656 84.171875 111.277344 84.105469 C 111.007812 84.050781 110.746094 83.941406 110.507812 83.777344 C 110.292969 83.621094 110.117188 83.40625 110 83.148438 C 109.867188 82.835938 109.800781 82.496094 109.8125 82.152344 C 109.8125 82.066406 109.8125 81.976562 109.8125 81.882812 C 109.8125 81.789062 109.8125 81.691406 109.84375 81.59375 C 109.894531 81.1875 110.011719 80.792969 110.191406 80.433594 C 110.371094 80.070312 110.605469 79.738281 110.875 79.453125 C 111.144531 79.175781 111.449219 78.945312 111.777344 78.773438 C 112.089844 78.605469 112.429688 78.515625 112.773438 78.511719 L 114.027344 78.511719 C 114.632812 78.460938 115.242188 78.609375 115.773438 78.9375 C 116.191406 79.277344 116.417969 79.835938 116.367188 80.414062 C 116.367188 80.644531 116.347656 80.871094 116.3125 81.097656 C 116.261719 81.527344 116.140625 81.9375 115.953125 82.3125 Z M 111.632812 81.519531 L 111.632812 81.582031 C 111.632812 81.726562 111.65625 81.871094 111.699219 82.007812 C 111.742188 82.144531 111.800781 82.273438 111.878906 82.386719 C 111.953125 82.5 112.042969 82.59375 112.144531 82.667969 C 112.242188 82.738281 112.351562 82.773438 112.46875 82.773438 L 113.097656 82.773438 C 113.191406 82.765625 113.285156 82.734375 113.371094 82.679688 C 113.5 82.613281 113.628906 82.535156 113.746094 82.445312 C 113.878906 82.34375 114.003906 82.226562 114.121094 82.105469 C 114.222656 81.996094 114.3125 81.871094 114.378906 81.734375 C 114.425781 81.664062 114.460938 81.582031 114.484375 81.5 L 114.519531 81.386719 C 114.527344 81.355469 114.535156 81.324219 114.542969 81.292969 L 114.542969 81.117188 C 114.542969 81.058594 114.542969 80.992188 114.542969 80.929688 C 114.542969 80.816406 114.535156 80.699219 114.515625 80.585938 C 114.496094 80.476562 114.457031 80.371094 114.402344 80.277344 C 114.339844 80.1875 114.257812 80.113281 114.167969 80.066406 C 114.050781 80.007812 113.921875 79.980469 113.792969 79.984375 L 113 79.984375 C 112.886719 79.988281 112.777344 80.019531 112.675781 80.074219 C 112.550781 80.140625 112.4375 80.222656 112.328125 80.316406 C 112.214844 80.417969 112.105469 80.53125 112.007812 80.65625 C 111.917969 80.765625 111.839844 80.890625 111.777344 81.023438 C 111.742188 81.113281 111.714844 81.191406 111.6875 81.265625 C 111.667969 81.328125 111.648438 81.394531 111.640625 81.464844 C 111.636719 81.480469 111.632812 81.496094 111.632812 81.511719 Z M 111.632812 81.519531 "/>
<path style=" stroke:none;fill-rule:nonzero;fill:rgb(43.921569%,43.921569%,43.137255%);fill-opacity:1;" d="M 120.105469 82.386719 L 120.105469 82.3125 C 120.101562 82.25 120.09375 82.191406 120.074219 82.132812 C 120.0625 82.082031 120.019531 82.042969 119.96875 82.046875 L 118.066406 82.046875 C 117.882812 82.046875 117.707031 81.992188 117.554688 81.886719 C 117.402344 81.785156 117.265625 81.652344 117.160156 81.492188 C 117.046875 81.335938 116.960938 81.152344 116.90625 80.960938 C 116.847656 80.777344 116.820312 80.585938 116.820312 80.390625 C 116.828125 80.1875 116.871094 79.988281 116.953125 79.804688 C 117.042969 79.585938 117.160156 79.378906 117.292969 79.1875 C 117.429688 78.996094 117.589844 78.828125 117.773438 78.691406 C 117.929688 78.566406 118.113281 78.496094 118.304688 78.492188 L 123.160156 78.492188 C 123.003906 78.746094 122.839844 78.992188 122.65625 79.222656 C 122.472656 79.46875 122.261719 79.707031 122.039062 79.953125 L 118.890625 79.953125 C 118.824219 79.953125 118.765625 80.003906 118.710938 80.113281 C 118.671875 80.191406 118.644531 80.277344 118.636719 80.371094 L 118.636719 80.425781 C 118.636719 80.425781 118.636719 80.425781 118.675781 80.472656 L 118.730469 80.53125 C 118.765625 80.566406 118.800781 80.59375 118.84375 80.613281 L 118.921875 80.648438 L 120.75 80.648438 C 120.9375 80.644531 121.117188 80.703125 121.273438 80.816406 C 121.425781 80.921875 121.554688 81.070312 121.648438 81.238281 C 121.742188 81.40625 121.808594 81.589844 121.851562 81.78125 C 121.882812 81.957031 121.890625 82.136719 121.878906 82.3125 L 121.878906 82.375 C 121.875 82.582031 121.835938 82.785156 121.765625 82.972656 C 121.691406 83.183594 121.589844 83.378906 121.464844 83.558594 C 121.34375 83.734375 121.199219 83.882812 121.035156 84.003906 C 120.890625 84.117188 120.714844 84.179688 120.535156 84.183594 L 115.683594 84.183594 C 115.742188 84.0625 115.804688 83.945312 115.878906 83.835938 C 115.976562 83.675781 116.082031 83.519531 116.191406 83.359375 C 116.300781 83.199219 116.40625 83.054688 116.5 82.933594 C 116.59375 82.816406 116.65625 82.746094 116.671875 82.746094 L 119.910156 82.746094 C 120.007812 82.746094 120.058594 82.714844 120.074219 82.652344 C 120.089844 82.585938 120.101562 82.515625 120.101562 82.449219 Z M 120.105469 82.386719 "/>
<path style=" stroke:none;fill-rule:nonzero;fill:rgb(43.921569%,43.921569%,43.137255%);fill-opacity:1;" d="M 125.097656 82.101562 L 126.460938 80.648438 L 128.652344 80.648438 L 127.289062 82.101562 Z M 125.097656 82.101562 "/>
<path style=" stroke:none;fill-rule:nonzero;fill:rgb(43.921569%,43.921569%,43.137255%);fill-opacity:1;" d="M 132.449219 78.496094 L 136.691406 78.496094 C 136.878906 78.488281 137.066406 78.542969 137.222656 78.65625 C 137.359375 78.769531 137.46875 78.914062 137.542969 79.082031 C 137.621094 79.25 137.671875 79.429688 137.699219 79.617188 C 137.726562 79.792969 137.742188 79.96875 137.742188 80.148438 C 137.753906 80.472656 137.671875 80.792969 137.5 81.054688 C 137.34375 81.289062 137.140625 81.484375 136.90625 81.617188 C 136.660156 81.761719 136.394531 81.863281 136.117188 81.917969 C 135.847656 81.976562 135.578125 82.015625 135.304688 82.039062 L 137.1875 84.199219 L 135.148438 84.199219 L 133.164062 82.15625 L 133.058594 82.238281 L 132.429688 84.195312 L 130.601562 84.195312 Z M 135.894531 80.136719 C 135.894531 80.085938 135.886719 80.039062 135.867188 79.992188 C 135.847656 79.953125 135.796875 79.933594 135.722656 79.933594 L 133.8125 79.933594 L 133.269531 81.628906 L 134.105469 80.675781 L 135.628906 80.675781 C 135.714844 80.679688 135.796875 80.625 135.832031 80.53125 C 135.867188 80.453125 135.890625 80.367188 135.894531 80.277344 Z M 135.894531 80.136719 "/>
<path style=" stroke:none;fill-rule:nonzero;fill:rgb(43.921569%,43.921569%,43.137255%);fill-opacity:1;" d="M 144.472656 78.496094 C 144.40625 78.632812 144.332031 78.765625 144.246094 78.890625 C 144.144531 79.050781 144.03125 79.207031 143.914062 79.367188 C 143.808594 79.515625 143.695312 79.65625 143.574219 79.789062 C 143.460938 79.898438 143.382812 79.960938 143.328125 79.960938 L 140.398438 79.960938 L 139.855469 81.65625 L 140.757812 80.667969 L 142.945312 80.667969 L 141.585938 82.117188 L 139.707031 82.117188 L 139.496094 82.761719 L 143.144531 82.761719 C 143.125 82.789062 143.109375 82.820312 143.09375 82.851562 L 143.019531 82.996094 L 142.941406 83.140625 C 142.917969 83.179688 142.898438 83.203125 142.894531 83.210938 C 142.824219 83.316406 142.746094 83.417969 142.664062 83.511719 C 142.566406 83.625 142.46875 83.738281 142.375 83.839844 L 142.121094 84.101562 L 142 84.210938 L 137.207031 84.210938 L 139.042969 78.496094 Z M 144.472656 78.496094 "/>
<path style=" stroke:none;fill-rule:nonzero;fill:rgb(43.921569%,43.921569%,43.137255%);fill-opacity:1;" d="M 144.101562 81.5625 C 144.105469 81.195312 144.171875 80.835938 144.300781 80.5 C 144.425781 80.144531 144.605469 79.808594 144.824219 79.515625 C 145.050781 79.222656 145.320312 78.980469 145.617188 78.789062 C 145.90625 78.605469 146.234375 78.507812 146.566406 78.503906 L 150.503906 78.503906 C 150.316406 78.777344 150.125 79.035156 149.945312 79.273438 C 149.753906 79.515625 149.546875 79.742188 149.328125 79.953125 L 146.851562 79.953125 C 146.761719 79.957031 146.671875 79.988281 146.59375 80.042969 C 146.496094 80.113281 146.40625 80.191406 146.328125 80.285156 C 146.238281 80.390625 146.160156 80.503906 146.09375 80.625 C 146.027344 80.742188 145.972656 80.863281 145.933594 80.992188 C 145.890625 81.128906 145.867188 81.273438 145.855469 81.417969 C 145.859375 81.566406 145.894531 81.710938 145.949219 81.839844 C 146.015625 81.996094 146.097656 82.136719 146.195312 82.265625 C 146.289062 82.390625 146.398438 82.496094 146.519531 82.585938 C 146.617188 82.664062 146.734375 82.710938 146.851562 82.714844 L 149.128906 82.714844 C 148.984375 82.957031 148.816406 83.207031 148.636719 83.460938 C 148.445312 83.722656 148.230469 83.957031 147.996094 84.164062 L 147.246094 84.164062 C 146.855469 84.164062 146.472656 84.125 146.089844 84.046875 C 145.734375 83.972656 145.394531 83.828125 145.082031 83.621094 C 144.785156 83.429688 144.539062 83.15625 144.363281 82.824219 C 144.171875 82.4375 144.078125 81.996094 144.09375 81.554688 Z M 144.101562 81.5625 "/>
<path style=" stroke:none;fill-rule:nonzero;fill:rgb(43.921569%,43.921569%,43.137255%);fill-opacity:1;" d="M 154.066406 84.195312 L 153.863281 82.976562 C 153.832031 83.066406 153.785156 83.152344 153.730469 83.226562 C 153.652344 83.347656 153.558594 83.476562 153.460938 83.613281 C 153.363281 83.75 153.265625 83.871094 153.171875 83.992188 C 153.109375 84.070312 153.039062 84.136719 152.960938 84.195312 L 148.9375 84.195312 C 148.9375 84.136719 148.957031 84.109375 148.957031 84.117188 L 148.957031 84.085938 L 152.382812 79.148438 C 152.414062 79.089844 152.453125 79.03125 152.496094 78.980469 C 152.550781 78.90625 152.617188 78.835938 152.679688 78.769531 C 152.746094 78.699219 152.816406 78.640625 152.878906 78.585938 C 152.929688 78.542969 152.988281 78.515625 153.050781 78.503906 L 154.648438 78.503906 C 154.71875 78.511719 154.785156 78.554688 154.824219 78.625 C 154.882812 78.714844 154.925781 78.8125 154.960938 78.917969 C 155 79.03125 155.035156 79.152344 155.0625 79.273438 C 155.089844 79.398438 155.113281 79.503906 155.132812 79.589844 L 155.761719 84.195312 Z M 151.933594 82.734375 L 153.855469 82.734375 L 153.523438 80.21875 L 151.925781 82.628906 Z M 151.933594 82.734375 "/>
<path style=" stroke:none;fill-rule:nonzero;fill:rgb(43.921569%,43.921569%,43.137255%);fill-opacity:1;" d="M 158.035156 78.496094 L 162.28125 78.496094 C 162.46875 78.488281 162.652344 78.542969 162.808594 78.65625 C 162.945312 78.765625 163.054688 78.914062 163.125 79.082031 C 163.207031 79.246094 163.261719 79.429688 163.285156 79.617188 C 163.3125 79.792969 163.328125 79.96875 163.328125 80.148438 C 163.339844 80.472656 163.253906 80.789062 163.089844 81.054688 C 162.929688 81.289062 162.726562 81.480469 162.496094 81.617188 C 162.246094 81.761719 161.980469 81.863281 161.703125 81.917969 C 161.4375 81.976562 161.164062 82.015625 160.890625 82.039062 L 162.773438 84.199219 L 160.734375 84.199219 L 158.742188 82.15625 L 158.640625 82.238281 L 158.011719 84.195312 L 156.183594 84.195312 Z M 161.484375 80.136719 C 161.484375 80.085938 161.472656 80.039062 161.453125 79.992188 C 161.433594 79.953125 161.386719 79.933594 161.308594 79.933594 L 159.398438 79.933594 L 158.851562 81.628906 L 159.691406 80.675781 L 161.214844 80.675781 C 161.304688 80.679688 161.386719 80.625 161.417969 80.53125 C 161.457031 80.453125 161.476562 80.367188 161.484375 80.277344 Z M 161.484375 80.136719 "/>
<path style=" stroke:none;fill-rule:nonzero;fill:rgb(43.921569%,43.921569%,43.137255%);fill-opacity:1;" d="M 169.34375 80.648438 L 168.148438 84.195312 L 166.730469 84.195312 C 166.34375 84.195312 165.957031 84.15625 165.574219 84.074219 C 165.21875 84.003906 164.878906 83.859375 164.566406 83.652344 C 164.273438 83.460938 164.023438 83.183594 163.847656 82.855469 C 163.65625 82.464844 163.5625 82.027344 163.578125 81.582031 C 163.582031 81.21875 163.648438 80.855469 163.777344 80.519531 C 163.910156 80.15625 164.09375 79.820312 164.320312 79.523438 C 164.542969 79.226562 164.808594 78.976562 165.109375 78.785156 C 165.398438 78.601562 165.726562 78.5 166.0625 78.5 L 169.992188 78.5 C 169.808594 78.773438 169.617188 79.03125 169.4375 79.269531 C 169.246094 79.511719 169.042969 79.738281 168.820312 79.949219 L 166.347656 79.949219 C 166.242188 79.949219 166.140625 79.980469 166.054688 80.039062 C 165.957031 80.105469 165.867188 80.1875 165.789062 80.28125 C 165.710938 80.386719 165.636719 80.5 165.574219 80.621094 C 165.515625 80.738281 165.464844 80.863281 165.425781 80.988281 C 165.382812 81.125 165.355469 81.269531 165.351562 81.414062 C 165.355469 81.558594 165.386719 81.703125 165.441406 81.835938 C 165.5 81.992188 165.582031 82.132812 165.675781 82.261719 C 165.773438 82.382812 165.878906 82.492188 166 82.582031 C 166.101562 82.664062 166.222656 82.707031 166.347656 82.710938 L 166.910156 82.710938 L 167.128906 82.011719 L 166.054688 82.011719 C 166.085938 81.9375 166.125 81.867188 166.167969 81.800781 C 166.246094 81.683594 166.332031 81.550781 166.433594 81.40625 C 166.535156 81.261719 166.640625 81.113281 166.753906 80.980469 C 166.84375 80.855469 166.945312 80.742188 167.054688 80.640625 Z M 169.34375 80.648438 "/>
<path style=" stroke:none;fill-rule:nonzero;fill:rgb(43.921569%,43.921569%,43.137255%);fill-opacity:1;" d="M 173.789062 84.195312 L 173.585938 82.976562 C 173.554688 83.066406 173.507812 83.152344 173.453125 83.226562 C 173.375 83.347656 173.28125 83.476562 173.183594 83.613281 C 173.085938 83.75 172.988281 83.871094 172.894531 83.992188 C 172.832031 84.070312 172.761719 84.136719 172.683594 84.195312 L 168.660156 84.195312 C 168.660156 84.136719 168.679688 84.109375 168.679688 84.117188 L 168.679688 84.085938 L 172.105469 79.148438 C 172.136719 79.089844 172.175781 79.03125 172.21875 78.980469 C 172.273438 78.90625 172.339844 78.835938 172.402344 78.769531 C 172.46875 78.699219 172.539062 78.640625 172.601562 78.585938 C 172.652344 78.542969 172.710938 78.515625 172.773438 78.503906 L 174.371094 78.503906 C 174.441406 78.511719 174.507812 78.554688 174.546875 78.625 C 174.605469 78.714844 174.648438 78.8125 174.683594 78.917969 C 174.722656 79.03125 174.757812 79.152344 174.785156 79.273438 C 174.8125 79.398438 174.835938 79.503906 174.855469 79.589844 L 175.484375 84.195312 Z M 171.65625 82.753906 L 173.585938 82.753906 L 173.257812 80.234375 L 171.65625 82.648438 Z M 171.65625 82.753906 "/>
<path style=" stroke:none;fill-rule:nonzero;fill:rgb(43.921569%,43.921569%,43.137255%);fill-opacity:1;" d="M 180.292969 82.386719 L 180.292969 82.3125 C 180.289062 82.25 180.28125 82.191406 180.261719 82.132812 C 180.25 82.082031 180.207031 82.042969 180.160156 82.046875 L 178.257812 82.046875 C 178.074219 82.050781 177.894531 81.996094 177.742188 81.886719 C 177.589844 81.785156 177.453125 81.652344 177.347656 81.492188 C 177.234375 81.335938 177.148438 81.152344 177.09375 80.960938 C 177.039062 80.777344 177.007812 80.585938 177.007812 80.390625 C 177.015625 80.1875 177.058594 79.988281 177.140625 79.804688 C 177.230469 79.585938 177.347656 79.375 177.484375 79.1875 C 177.617188 78.996094 177.777344 78.828125 177.957031 78.691406 C 178.117188 78.566406 178.300781 78.496094 178.492188 78.492188 L 183.34375 78.492188 C 183.191406 78.746094 183.027344 78.992188 182.84375 79.222656 C 182.660156 79.46875 182.449219 79.707031 182.226562 79.953125 L 179.082031 79.953125 C 179.011719 79.953125 178.953125 80.003906 178.902344 80.113281 C 178.859375 80.191406 178.832031 80.277344 178.824219 80.371094 L 178.824219 80.425781 C 178.824219 80.425781 178.824219 80.425781 178.863281 80.472656 L 178.921875 80.53125 C 178.953125 80.566406 178.988281 80.59375 179.03125 80.613281 L 179.109375 80.648438 L 180.9375 80.648438 C 181.125 80.644531 181.304688 80.703125 181.460938 80.816406 C 181.613281 80.921875 181.742188 81.066406 181.835938 81.238281 C 181.929688 81.40625 182 81.589844 182.039062 81.78125 C 182.070312 81.957031 182.078125 82.136719 182.066406 82.3125 L 182.066406 82.375 C 182.0625 82.582031 182.023438 82.785156 181.953125 82.972656 C 181.878906 83.183594 181.777344 83.382812 181.652344 83.558594 C 181.53125 83.734375 181.386719 83.882812 181.222656 84.003906 C 181.078125 84.117188 180.902344 84.179688 180.722656 84.183594 L 175.871094 84.183594 C 175.929688 84.0625 175.992188 83.945312 176.066406 83.835938 C 176.164062 83.675781 176.269531 83.519531 176.378906 83.359375 C 176.488281 83.199219 176.59375 83.054688 176.6875 82.933594 C 176.78125 82.816406 176.839844 82.746094 176.859375 82.746094 L 180.09375 82.746094 C 180.191406 82.746094 180.246094 82.714844 180.265625 82.652344 C 180.28125 82.585938 180.289062 82.515625 180.289062 82.449219 Z M 180.292969 82.386719 "/>
<path style=" stroke:none;fill-rule:nonzero;fill:rgb(43.921569%,43.921569%,43.137255%);fill-opacity:1;" d="M 71.734375 71.925781 C 71.742188 71.472656 71.824219 71.027344 71.984375 70.613281 C 72.148438 70.167969 72.371094 69.757812 72.652344 69.394531 C 72.933594 69.035156 73.261719 68.734375 73.628906 68.5 C 73.988281 68.269531 74.394531 68.148438 74.804688 68.152344 L 79.65625 68.152344 C 79.429688 68.484375 79.199219 68.800781 78.96875 69.097656 C 78.734375 69.398438 78.484375 69.679688 78.21875 69.945312 L 75.160156 69.945312 C 75.042969 69.949219 74.933594 69.988281 74.835938 70.058594 C 74.714844 70.140625 74.605469 70.242188 74.507812 70.355469 C 74.398438 70.484375 74.300781 70.625 74.222656 70.78125 C 74.140625 70.921875 74.074219 71.074219 74.019531 71.234375 C 73.964844 71.410156 73.933594 71.589844 73.925781 71.777344 C 73.929688 71.964844 73.96875 72.148438 74.046875 72.316406 C 74.121094 72.503906 74.222656 72.679688 74.34375 72.835938 C 74.457031 72.988281 74.59375 73.125 74.742188 73.234375 C 74.863281 73.332031 75.007812 73.386719 75.160156 73.390625 L 77.96875 73.390625 C 77.789062 73.691406 77.59375 74.003906 77.359375 74.316406 C 77.125 74.628906 76.859375 74.914062 76.570312 75.164062 L 75.609375 75.164062 C 75.132812 75.164062 74.65625 75.117188 74.1875 75.019531 C 73.75 74.933594 73.328125 74.761719 72.941406 74.511719 C 72.578125 74.269531 72.273438 73.929688 72.054688 73.523438 C 71.816406 73.042969 71.703125 72.496094 71.722656 71.945312 Z M 71.734375 71.925781 "/>
<path style=" stroke:none;fill-rule:nonzero;fill:rgb(43.921569%,43.921569%,43.137255%);fill-opacity:1;" d="M 86.144531 72.835938 C 85.679688 73.75 84.957031 74.464844 84.09375 74.863281 C 83.667969 75.0625 83.207031 75.167969 82.746094 75.167969 L 81.574219 75.167969 C 81.171875 75.171875 80.769531 75.132812 80.371094 75.050781 C 80.035156 74.976562 79.710938 74.832031 79.421875 74.625 C 79.15625 74.433594 78.9375 74.164062 78.792969 73.847656 C 78.628906 73.46875 78.550781 73.042969 78.5625 72.621094 C 78.5625 72.515625 78.5625 72.402344 78.5625 72.285156 C 78.5625 72.167969 78.582031 72.050781 78.601562 71.929688 C 78.664062 71.425781 78.8125 70.941406 79.035156 70.5 C 79.253906 70.046875 79.542969 69.636719 79.878906 69.289062 C 80.214844 68.941406 80.59375 68.652344 81.007812 68.4375 C 81.390625 68.230469 81.8125 68.125 82.238281 68.121094 L 83.789062 68.121094 C 84.539062 68.066406 85.285156 68.257812 85.945312 68.667969 C 86.460938 69.082031 86.75 69.777344 86.695312 70.492188 C 86.695312 70.777344 86.671875 71.058594 86.625 71.339844 C 86.550781 71.867188 86.386719 72.375 86.144531 72.835938 Z M 80.808594 71.855469 L 80.808594 71.9375 C 80.8125 72.105469 80.835938 72.273438 80.886719 72.433594 C 80.941406 72.601562 81.019531 72.761719 81.113281 72.902344 C 81.203125 73.039062 81.316406 73.15625 81.441406 73.246094 C 81.558594 73.332031 81.699219 73.378906 81.839844 73.378906 L 82.617188 73.378906 C 82.734375 73.367188 82.847656 73.328125 82.953125 73.269531 C 83.109375 73.183594 83.261719 73.085938 83.40625 72.972656 C 83.5625 72.84375 83.714844 72.703125 83.851562 72.546875 C 83.976562 72.414062 84.085938 72.261719 84.167969 72.089844 C 84.222656 72.003906 84.269531 71.90625 84.296875 71.800781 L 84.34375 71.671875 C 84.351562 71.628906 84.359375 71.585938 84.367188 71.546875 C 84.367188 71.480469 84.367188 71.40625 84.386719 71.332031 C 84.40625 71.253906 84.386719 71.179688 84.386719 71.097656 C 84.386719 70.957031 84.375 70.8125 84.351562 70.671875 C 84.332031 70.539062 84.28125 70.410156 84.210938 70.296875 C 84.136719 70.183594 84.039062 70.089844 83.921875 70.035156 C 83.773438 69.960938 83.609375 69.925781 83.445312 69.933594 L 82.496094 69.933594 C 82.355469 69.933594 82.21875 69.972656 82.089844 70.046875 C 81.9375 70.125 81.796875 70.226562 81.664062 70.34375 C 81.523438 70.46875 81.398438 70.613281 81.285156 70.765625 C 81.175781 70.90625 81.078125 71.058594 80.996094 71.21875 L 80.890625 71.523438 C 80.863281 71.601562 80.847656 71.679688 80.835938 71.761719 C 80.816406 71.789062 80.804688 71.824219 80.796875 71.855469 Z M 80.808594 71.855469 "/>
<path style=" stroke:none;fill-rule:nonzero;fill:rgb(43.921569%,43.921569%,43.137255%);fill-opacity:1;" d="M 88.292969 68.152344 L 93.535156 68.152344 C 93.765625 68.140625 93.992188 68.207031 94.1875 68.347656 C 94.351562 68.476562 94.488281 68.648438 94.582031 68.851562 C 94.675781 69.058594 94.738281 69.28125 94.773438 69.511719 C 94.804688 69.730469 94.824219 69.953125 94.824219 70.175781 C 94.839844 70.574219 94.734375 70.964844 94.53125 71.289062 C 94.332031 71.582031 94.074219 71.820312 93.78125 71.984375 C 93.472656 72.160156 93.144531 72.285156 92.804688 72.351562 C 92.472656 72.425781 92.136719 72.476562 91.800781 72.503906 L 94.101562 75.167969 L 91.585938 75.167969 L 89.167969 72.652344 L 89.035156 72.757812 L 88.261719 75.167969 L 86.003906 75.167969 Z M 92.539062 70.175781 C 92.539062 70.113281 92.527344 70.050781 92.503906 69.996094 C 92.480469 69.949219 92.421875 69.921875 92.328125 69.921875 L 89.964844 69.921875 L 89.296875 71.988281 L 90.328125 70.8125 L 92.210938 70.8125 C 92.320312 70.816406 92.417969 70.746094 92.460938 70.632812 C 92.507812 70.535156 92.53125 70.429688 92.539062 70.320312 Z M 92.539062 70.175781 "/>
<path style=" stroke:none;fill-rule:nonzero;fill:rgb(43.921569%,43.921569%,43.137255%);fill-opacity:1;" d="M 96.433594 68.152344 L 101.675781 68.152344 C 101.90625 68.140625 102.132812 68.207031 102.324219 68.347656 C 102.492188 68.476562 102.628906 68.648438 102.722656 68.851562 C 102.816406 69.058594 102.882812 69.28125 102.917969 69.511719 C 102.949219 69.730469 102.96875 69.953125 102.96875 70.175781 C 102.988281 70.570312 102.890625 70.960938 102.695312 71.289062 C 102.492188 71.582031 102.238281 71.820312 101.941406 71.984375 C 101.636719 72.164062 101.308594 72.289062 100.96875 72.351562 C 100.636719 72.425781 100.300781 72.476562 99.964844 72.503906 L 102.265625 75.167969 L 99.753906 75.167969 L 97.332031 72.652344 L 97.203125 72.757812 L 96.425781 75.167969 L 94.171875 75.167969 Z M 100.691406 70.175781 C 100.691406 70.113281 100.679688 70.050781 100.652344 69.996094 C 100.628906 69.949219 100.570312 69.921875 100.476562 69.921875 L 98.117188 69.921875 L 97.445312 71.988281 L 98.480469 70.8125 L 100.363281 70.8125 C 100.472656 70.816406 100.570312 70.746094 100.613281 70.632812 C 100.660156 70.535156 100.6875 70.429688 100.695312 70.320312 Z M 100.691406 70.175781 "/>
<path style=" stroke:none;fill-rule:nonzero;fill:rgb(43.921569%,43.921569%,43.137255%);fill-opacity:1;" d="M 111.273438 68.152344 C 111.195312 68.320312 111.101562 68.480469 111 68.632812 C 110.867188 68.832031 110.734375 69.027344 110.585938 69.222656 C 110.457031 69.398438 110.316406 69.566406 110.164062 69.722656 C 110.027344 69.867188 109.929688 69.9375 109.863281 69.9375 L 106.246094 69.9375 L 105.574219 72.019531 L 106.703125 70.796875 L 109.417969 70.796875 L 107.738281 72.585938 L 105.398438 72.585938 L 105.140625 73.378906 L 109.652344 73.378906 C 109.636719 73.417969 109.617188 73.457031 109.59375 73.492188 L 109.5 73.671875 C 109.46875 73.734375 109.4375 73.789062 109.40625 73.84375 C 109.386719 73.878906 109.367188 73.910156 109.34375 73.9375 C 109.257812 74.070312 109.164062 74.191406 109.058594 74.308594 C 108.9375 74.445312 108.820312 74.582031 108.703125 74.710938 C 108.585938 74.835938 108.480469 74.949219 108.390625 75.035156 C 108.34375 75.085938 108.296875 75.128906 108.242188 75.167969 L 102.320312 75.167969 L 104.574219 68.152344 Z M 111.273438 68.152344 "/>
<path style=" stroke:none;fill-rule:nonzero;fill:rgb(43.921569%,43.921569%,43.137255%);fill-opacity:1;" d="M 115.234375 72.941406 L 115.234375 72.867188 C 115.234375 72.789062 115.222656 72.714844 115.199219 72.644531 C 115.183594 72.578125 115.132812 72.53125 115.070312 72.535156 L 112.71875 72.535156 C 112.496094 72.535156 112.277344 72.46875 112.082031 72.339844 C 111.894531 72.214844 111.730469 72.046875 111.597656 71.851562 C 111.460938 71.65625 111.355469 71.433594 111.285156 71.195312 C 111.21875 70.96875 111.183594 70.734375 111.179688 70.496094 C 111.191406 70.242188 111.246094 69.996094 111.347656 69.769531 C 111.460938 69.496094 111.601562 69.238281 111.769531 69.003906 C 111.933594 68.765625 112.132812 68.5625 112.355469 68.394531 C 112.546875 68.242188 112.777344 68.15625 113.011719 68.152344 L 119.003906 68.152344 C 118.816406 68.464844 118.609375 68.765625 118.386719 69.050781 C 118.152344 69.363281 117.898438 69.667969 117.636719 69.953125 L 113.742188 69.953125 C 113.65625 69.953125 113.582031 70.015625 113.519531 70.148438 C 113.46875 70.246094 113.4375 70.351562 113.425781 70.464844 L 113.425781 70.535156 C 113.425781 70.535156 113.425781 70.5625 113.472656 70.59375 L 113.542969 70.664062 C 113.582031 70.707031 113.628906 70.742188 113.679688 70.765625 L 113.777344 70.8125 L 116.011719 70.8125 C 116.238281 70.808594 116.464844 70.878906 116.65625 71.015625 C 116.832031 71.152344 116.984375 71.328125 117.097656 71.535156 C 117.210938 71.742188 117.296875 71.964844 117.351562 72.199219 C 117.402344 72.417969 117.429688 72.640625 117.433594 72.867188 L 117.433594 72.941406 C 117.429688 73.195312 117.378906 73.445312 117.289062 73.679688 C 117.195312 73.9375 117.066406 74.179688 116.914062 74.402344 C 116.765625 74.613281 116.585938 74.800781 116.382812 74.953125 C 116.199219 75.089844 115.988281 75.164062 115.765625 75.167969 L 109.78125 75.167969 C 109.855469 75.023438 109.933594 74.878906 110.023438 74.742188 C 110.148438 74.550781 110.273438 74.355469 110.398438 74.15625 C 110.523438 73.957031 110.664062 73.78125 110.773438 73.625 C 110.882812 73.46875 110.960938 73.394531 110.984375 73.394531 L 114.980469 73.394531 C 115.097656 73.394531 115.167969 73.351562 115.1875 73.273438 C 115.207031 73.191406 115.21875 73.105469 115.21875 73.023438 Z M 115.234375 72.941406 "/>
<path style=" stroke:none;fill-rule:nonzero;fill:rgb(43.921569%,43.921569%,43.137255%);fill-opacity:1;" d="M 119.675781 68.152344 L 125.070312 68.152344 C 125.277344 68.140625 125.484375 68.214844 125.652344 68.355469 C 125.808594 68.492188 125.9375 68.664062 126.027344 68.859375 C 126.121094 69.058594 126.183594 69.273438 126.214844 69.496094 C 126.25 69.695312 126.269531 69.894531 126.269531 70.097656 C 126.273438 70.453125 126.191406 70.804688 126.035156 71.113281 C 125.882812 71.421875 125.679688 71.691406 125.4375 71.914062 C 125.199219 72.140625 124.925781 72.316406 124.636719 72.441406 C 124.371094 72.558594 124.085938 72.621094 123.800781 72.625 L 120.488281 72.625 L 119.664062 75.167969 L 117.40625 75.167969 Z M 120.699219 71.96875 L 121.828125 70.84375 L 123.707031 70.84375 C 123.707031 70.84375 123.730469 70.820312 123.757812 70.785156 L 123.847656 70.644531 L 123.933594 70.492188 C 123.957031 70.457031 123.972656 70.417969 123.984375 70.375 L 124.011719 70.3125 C 124 70.292969 123.988281 70.269531 123.984375 70.246094 C 123.949219 70.183594 123.910156 70.125 123.867188 70.066406 C 123.804688 69.992188 123.769531 69.957031 123.753906 69.957031 L 121.34375 69.957031 Z M 120.699219 71.96875 "/>
<path style=" stroke:none;fill-rule:nonzero;fill:rgb(43.921569%,43.921569%,43.137255%);fill-opacity:1;" d="M 133.917969 72.835938 C 133.453125 73.75 132.730469 74.464844 131.867188 74.863281 C 131.441406 75.0625 130.980469 75.167969 130.519531 75.167969 L 129.347656 75.167969 C 128.945312 75.171875 128.542969 75.132812 128.144531 75.050781 C 127.808594 74.976562 127.484375 74.832031 127.195312 74.625 C 126.929688 74.433594 126.710938 74.164062 126.566406 73.847656 C 126.402344 73.464844 126.324219 73.042969 126.335938 72.621094 C 126.335938 72.515625 126.335938 72.402344 126.335938 72.285156 C 126.335938 72.167969 126.355469 72.050781 126.375 71.929688 C 126.4375 71.425781 126.585938 70.941406 126.808594 70.5 C 127.25 69.601562 127.9375 68.882812 128.761719 68.449219 C 129.148438 68.242188 129.566406 68.132812 129.992188 68.128906 L 131.542969 68.128906 C 132.292969 68.074219 133.042969 68.265625 133.699219 68.675781 C 134.210938 69.097656 134.488281 69.789062 134.433594 70.5 C 134.429688 70.785156 134.40625 71.066406 134.363281 71.347656 C 134.296875 71.871094 134.148438 72.375 133.917969 72.835938 Z M 128.582031 71.855469 L 128.582031 71.9375 C 128.582031 72.105469 128.613281 72.273438 128.664062 72.433594 C 128.714844 72.601562 128.792969 72.761719 128.886719 72.902344 C 128.976562 73.039062 129.089844 73.15625 129.21875 73.246094 C 129.335938 73.332031 129.476562 73.378906 129.617188 73.378906 L 130.390625 73.378906 C 130.507812 73.367188 130.625 73.332031 130.726562 73.269531 C 130.882812 73.183594 131.035156 73.085938 131.179688 72.972656 C 131.335938 72.84375 131.488281 72.703125 131.625 72.546875 C 131.75 72.414062 131.859375 72.261719 131.941406 72.089844 C 132 72.003906 132.042969 71.90625 132.070312 71.800781 L 132.117188 71.671875 C 132.125 71.628906 132.132812 71.585938 132.140625 71.546875 C 132.140625 71.480469 132.140625 71.40625 132.160156 71.332031 C 132.179688 71.253906 132.160156 71.179688 132.160156 71.097656 C 132.160156 70.957031 132.148438 70.8125 132.125 70.671875 C 132.105469 70.539062 132.058594 70.410156 131.988281 70.296875 C 131.910156 70.183594 131.8125 70.09375 131.699219 70.035156 C 131.546875 69.960938 131.386719 69.925781 131.222656 69.933594 L 130.273438 69.933594 C 130.128906 69.933594 129.992188 69.972656 129.867188 70.046875 C 129.710938 70.125 129.570312 70.226562 129.4375 70.34375 C 129.292969 70.46875 129.160156 70.609375 129.042969 70.765625 C 128.929688 70.90625 128.835938 71.058594 128.753906 71.21875 C 128.714844 71.328125 128.679688 71.429688 128.648438 71.523438 C 128.621094 71.601562 128.601562 71.679688 128.589844 71.761719 C 128.582031 71.792969 128.578125 71.824219 128.582031 71.855469 Z M 128.582031 71.855469 "/>
<path style=" stroke:none;fill-rule:nonzero;fill:rgb(43.921569%,43.921569%,43.137255%);fill-opacity:1;" d="M 136.074219 68.152344 L 138.917969 68.152344 L 139.589844 72.09375 L 140.871094 68.152344 L 143.101562 68.152344 L 140.847656 75.167969 L 138.003906 75.167969 L 137.347656 71.21875 L 136.074219 75.167969 L 133.820312 75.167969 Z M 136.074219 68.152344 "/>
<path style=" stroke:none;fill-rule:nonzero;fill:rgb(43.921569%,43.921569%,43.137255%);fill-opacity:1;" d="M 147.082031 72.941406 L 147.082031 72.867188 C 147.082031 72.789062 147.070312 72.714844 147.050781 72.644531 C 147.035156 72.578125 146.980469 72.53125 146.917969 72.535156 L 144.5625 72.535156 C 144.339844 72.539062 144.117188 72.46875 143.925781 72.339844 C 143.738281 72.210938 143.574219 72.046875 143.4375 71.851562 C 143.175781 71.460938 143.03125 70.984375 143.023438 70.496094 C 143.03125 70.242188 143.085938 69.996094 143.1875 69.769531 C 143.300781 69.496094 143.441406 69.238281 143.609375 69.003906 C 143.777344 68.765625 143.976562 68.5625 144.199219 68.394531 C 144.390625 68.242188 144.621094 68.15625 144.855469 68.152344 L 150.84375 68.152344 C 150.652344 68.464844 150.449219 68.761719 150.226562 69.050781 C 149.996094 69.351562 149.738281 69.652344 149.457031 69.953125 L 145.578125 69.953125 C 145.492188 69.953125 145.421875 70.015625 145.355469 70.148438 C 145.304688 70.246094 145.273438 70.351562 145.261719 70.464844 L 145.261719 70.535156 C 145.261719 70.535156 145.261719 70.5625 145.3125 70.59375 L 145.378906 70.664062 C 145.417969 70.707031 145.464844 70.742188 145.515625 70.765625 L 145.617188 70.8125 L 147.835938 70.8125 C 148.0625 70.804688 148.289062 70.875 148.480469 71.015625 C 148.660156 71.152344 148.8125 71.328125 148.921875 71.535156 C 149.035156 71.742188 149.121094 71.964844 149.175781 72.199219 C 149.226562 72.417969 149.253906 72.640625 149.257812 72.867188 L 149.257812 72.941406 C 149.253906 73.195312 149.207031 73.445312 149.117188 73.679688 C 149.023438 73.9375 148.894531 74.179688 148.742188 74.402344 C 148.59375 74.617188 148.417969 74.800781 148.214844 74.953125 C 148.03125 75.089844 147.816406 75.164062 147.597656 75.167969 L 141.625 75.167969 C 141.695312 75.019531 141.777344 74.878906 141.867188 74.742188 C 141.984375 74.550781 142.113281 74.355469 142.242188 74.15625 C 142.371094 73.957031 142.503906 73.78125 142.617188 73.625 C 142.730469 73.46875 142.804688 73.394531 142.832031 73.394531 L 146.828125 73.394531 C 146.945312 73.394531 147.011719 73.351562 147.03125 73.273438 C 147.050781 73.191406 147.0625 73.105469 147.058594 73.023438 Z M 147.082031 72.941406 "/>
<path style=" stroke:none;fill-rule:nonzero;fill:rgb(43.921569%,43.921569%,43.137255%);fill-opacity:1;" d="M 155.488281 75.167969 L 155.242188 73.671875 C 155.199219 73.78125 155.140625 73.882812 155.074219 73.976562 C 154.976562 74.125 154.863281 74.285156 154.742188 74.457031 C 154.621094 74.625 154.5 74.773438 154.382812 74.917969 C 154.3125 75.019531 154.222656 75.101562 154.125 75.167969 L 149.15625 75.167969 C 149.160156 75.136719 149.167969 75.105469 149.179688 75.074219 L 149.179688 75.035156 L 153.410156 68.945312 C 153.449219 68.867188 153.496094 68.796875 153.550781 68.730469 C 153.621094 68.644531 153.695312 68.558594 153.777344 68.472656 C 153.863281 68.386719 153.945312 68.316406 154.027344 68.25 C 154.085938 68.195312 154.15625 68.160156 154.230469 68.152344 L 156.203125 68.152344 C 156.292969 68.15625 156.375 68.210938 156.421875 68.296875 C 156.496094 68.402344 156.554688 68.523438 156.59375 68.652344 C 156.640625 68.796875 156.683594 68.945312 156.714844 69.097656 C 156.75 69.253906 156.78125 69.378906 156.804688 69.488281 L 157.582031 75.167969 Z M 152.851562 73.394531 L 155.238281 73.394531 L 154.828125 70.285156 L 152.851562 73.25 Z M 152.851562 73.394531 "/>
<path style=" stroke:none;fill-rule:nonzero;fill:rgb(43.921569%,43.921569%,43.137255%);fill-opacity:1;" d="M 158.121094 75.167969 L 160.375 68.152344 L 162.632812 68.152344 L 160.945312 73.378906 L 164.667969 73.378906 C 164.632812 73.460938 164.585938 73.535156 164.535156 73.609375 C 164.4375 73.757812 164.308594 73.929688 164.15625 74.128906 C 164.011719 74.328125 163.851562 74.527344 163.691406 74.722656 C 163.5625 74.882812 163.425781 75.03125 163.277344 75.167969 Z M 158.121094 75.167969 "/>
<path style=" stroke:none;fill-rule:nonzero;fill:rgb(43.921569%,43.921569%,43.137255%);fill-opacity:1;" d="M 173.664062 68.152344 C 173.582031 68.320312 173.492188 68.480469 173.386719 68.632812 C 173.261719 68.832031 173.121094 69.027344 172.976562 69.222656 C 172.847656 69.398438 172.703125 69.566406 172.554688 69.722656 C 172.417969 69.867188 172.316406 69.9375 172.257812 69.9375 L 168.636719 69.9375 L 167.964844 72.019531 L 169.09375 70.796875 L 171.808594 70.796875 L 170.128906 72.585938 L 167.773438 72.585938 L 167.511719 73.378906 L 172.027344 73.378906 C 172.011719 73.417969 171.992188 73.457031 171.96875 73.492188 C 171.9375 73.550781 171.90625 73.613281 171.875 73.671875 L 171.78125 73.84375 L 171.722656 73.9375 C 171.632812 74.070312 171.535156 74.191406 171.433594 74.308594 C 171.3125 74.445312 171.191406 74.582031 171.074219 74.710938 C 170.957031 74.835938 170.851562 74.949219 170.761719 75.035156 C 170.71875 75.085938 170.667969 75.128906 170.617188 75.167969 L 164.699219 75.167969 L 166.957031 68.152344 Z M 173.664062 68.152344 "/>
<path style=" stroke:none;fill-rule:nonzero;fill:rgb(43.921569%,43.921569%,43.137255%);fill-opacity:1;" d="M 177.625 72.941406 L 177.625 72.867188 C 177.625 72.789062 177.613281 72.714844 177.589844 72.644531 C 177.574219 72.578125 177.519531 72.53125 177.457031 72.535156 L 175.109375 72.535156 C 174.886719 72.539062 174.667969 72.46875 174.476562 72.339844 C 174.289062 72.210938 174.121094 72.046875 173.988281 71.851562 C 173.722656 71.460938 173.578125 70.984375 173.574219 70.496094 C 173.582031 70.242188 173.636719 69.996094 173.734375 69.769531 C 173.847656 69.496094 173.992188 69.238281 174.160156 69.003906 C 174.324219 68.765625 174.523438 68.5625 174.746094 68.394531 C 174.941406 68.242188 175.167969 68.15625 175.40625 68.152344 L 181.398438 68.152344 C 181.207031 68.464844 181 68.761719 180.78125 69.050781 C 180.546875 69.351562 180.292969 69.652344 180.007812 69.953125 L 176.128906 69.953125 C 176.046875 69.953125 175.972656 70.015625 175.910156 70.148438 C 175.855469 70.246094 175.824219 70.351562 175.816406 70.464844 L 175.816406 70.535156 C 175.816406 70.535156 175.816406 70.5625 175.863281 70.59375 L 175.929688 70.664062 C 175.972656 70.707031 176.015625 70.742188 176.066406 70.765625 L 176.167969 70.8125 L 178.398438 70.8125 C 178.628906 70.804688 178.855469 70.875 179.046875 71.015625 C 179.222656 71.152344 179.375 71.328125 179.484375 71.535156 C 179.601562 71.742188 179.683594 71.964844 179.738281 72.199219 C 179.792969 72.417969 179.820312 72.640625 179.820312 72.867188 L 179.820312 72.941406 C 179.816406 73.195312 179.769531 73.445312 179.683594 73.679688 C 179.585938 73.9375 179.460938 74.179688 179.304688 74.402344 C 179.160156 74.617188 178.980469 74.800781 178.777344 74.953125 C 178.597656 75.089844 178.382812 75.164062 178.160156 75.167969 L 172.171875 75.167969 C 172.246094 75.019531 172.324219 74.878906 172.414062 74.742188 C 172.535156 74.550781 172.664062 74.355469 172.789062 74.15625 C 172.917969 73.957031 173.054688 73.78125 173.167969 73.625 C 173.28125 73.46875 173.355469 73.394531 173.382812 73.394531 L 177.375 73.394531 C 177.492188 73.394531 177.558594 73.351562 177.578125 73.273438 C 177.601562 73.191406 177.609375 73.105469 177.609375 73.023438 Z M 177.625 72.941406 "/>
</g>
</svg>
