<?xml version="1.0" encoding="UTF-8"?>
<svg xmlns="http://www.w3.org/2000/svg" xmlns:xlink="http://www.w3.org/1999/xlink" width="300px" height="100px" viewBox="0 0 300 100" version="1.1">
<g id="surface1">
<path style=" stroke:none;fill-rule:nonzero;fill:rgb(10.196078%,12.156863%,44.313725%);fill-opacity:1;" d="M 148.589844 1.769531 L 129.183594 98.476562 L 105.730469 98.476562 L 125.136719 1.769531 Z M 247.265625 64.210938 L 259.605469 27.890625 L 266.722656 64.210938 Z M 273.449219 98.457031 L 295.136719 98.457031 L 276.175781 1.789062 L 256.183594 1.789062 C 251.808594 1.746094 247.851562 4.546875 246.195312 8.867188 L 210.984375 98.476562 L 235.632812 98.476562 L 240.523438 84.054688 L 270.613281 84.054688 L 273.449219 98.496094 Z M 212.214844 66.894531 C 212.320312 41.382812 179.144531 39.972656 179.359375 28.558594 C 179.429688 25.09375 182.535156 21.402344 189.292969 20.453125 C 197.230469 19.65625 205.222656 21.152344 212.429688 24.789062 L 216.53125 4.28125 C 209.523438 1.484375 202.109375 0.03125 194.628906 0 C 171.441406 0 155.136719 13.128906 154.996094 31.964844 C 154.851562 45.890625 166.660156 53.652344 175.507812 58.296875 C 184.675781 63.03125 187.742188 66.078125 187.6875 70.300781 C 187.636719 76.789062 180.394531 79.660156 173.667969 79.777344 C 161.863281 79.964844 155.03125 76.371094 149.589844 73.667969 L 145.308594 94.863281 C 150.800781 97.527344 160.917969 99.867188 171.402344 100 C 196.035156 100 212.160156 87.003906 212.25 66.894531 Z M 115.074219 1.769531 L 77.082031 98.476562 L 52.253906 98.476562 L 33.5625 21.289062 C 32.4375 16.550781 31.4375 14.839844 27.996094 12.804688 C 22.359375 9.511719 13.066406 6.46875 4.863281 4.566406 L 5.414062 1.769531 L 45.332031 1.769531 C 50.417969 1.769531 54.984375 5.382812 56.144531 11.625 L 66.023438 67.578125 L 90.425781 1.75 Z M 115.074219 1.769531 "/>
</g>
</svg>
